G75*
G70*
%OFA0B0*%
%FSLAX24Y24*%
%IPPOS*%
%LPD*%
%AMOC8*
5,1,8,0,0,1.08239X$1,22.5*
%
%ADD10R,0.0354X0.0276*%
%ADD11C,0.0397*%
%ADD12R,0.0118X0.0315*%
%ADD13R,0.0315X0.0118*%
%ADD14R,0.0591X0.0591*%
%ADD15R,0.0472X0.0197*%
%ADD16R,0.0276X0.0354*%
%ADD17R,0.0551X0.0630*%
%ADD18C,0.0660*%
%ADD19C,0.0945*%
%ADD20C,0.0768*%
%ADD21C,0.0760*%
%ADD22R,0.0315X0.0315*%
%ADD23R,0.0394X0.0433*%
%ADD24R,0.0433X0.0394*%
%ADD25R,0.0472X0.0217*%
%ADD26R,0.0453X0.0394*%
%ADD27R,0.0709X0.0354*%
%ADD28C,0.0060*%
%ADD29C,0.0320*%
%ADD30C,0.0160*%
D10*
X011407Y020777D03*
X011407Y021289D03*
X011963Y021343D03*
X011963Y020831D03*
X015515Y012370D03*
X015515Y011858D03*
X023050Y012458D03*
X023050Y012970D03*
D11*
X022914Y041551D03*
X022414Y041551D03*
X021914Y041551D03*
X023414Y041551D03*
X023914Y041551D03*
X024414Y041551D03*
X024914Y041551D03*
X025414Y041551D03*
D12*
X023238Y040515D03*
X023042Y040515D03*
X022845Y040515D03*
X022648Y040515D03*
X022648Y039334D03*
X022845Y039334D03*
X023042Y039334D03*
X023238Y039334D03*
D13*
X023534Y039629D03*
X023534Y039826D03*
X023534Y040023D03*
X023534Y040220D03*
X022353Y040215D03*
X022353Y040023D03*
X022353Y039826D03*
X022353Y039629D03*
D14*
X022943Y039924D03*
D15*
X023967Y013464D03*
X023967Y012971D03*
X023967Y012479D03*
X023967Y011987D03*
X024912Y011987D03*
X024912Y012479D03*
X024912Y012971D03*
X024912Y013464D03*
D16*
X025668Y013419D03*
X025621Y012869D03*
X026133Y012869D03*
X026180Y013419D03*
X026171Y014174D03*
X025659Y014174D03*
X024666Y011347D03*
X024155Y011347D03*
X013039Y012550D03*
X012527Y012550D03*
X012673Y038312D03*
X012675Y038779D03*
X013187Y038779D03*
X013185Y038312D03*
X013328Y039291D03*
X013334Y039793D03*
X012822Y039793D03*
X012817Y039291D03*
D17*
X023845Y014437D03*
X024947Y014437D03*
D18*
X013673Y040830D03*
X012673Y040830D03*
D19*
X017298Y016176D03*
X020841Y016176D03*
D20*
X019069Y016795D03*
X019069Y012531D03*
X015424Y016176D03*
X022715Y016176D03*
D21*
X018028Y038984D03*
X019028Y039984D03*
X018028Y040984D03*
X017028Y039984D03*
D22*
X012494Y012092D03*
X012494Y011501D03*
D23*
X012990Y011316D03*
X012990Y011985D03*
D24*
X014073Y011183D03*
X014743Y011183D03*
D25*
X014810Y011803D03*
X014810Y012551D03*
X013786Y012551D03*
X013786Y012177D03*
X013786Y011803D03*
D26*
X012727Y017042D03*
X012727Y018026D03*
X012727Y019010D03*
D27*
X012632Y020002D03*
X012623Y021881D03*
D28*
X012618Y021878D01*
X012138Y021398D01*
X012018Y021398D01*
X011963Y021343D01*
X011958Y021338D01*
X011418Y021338D01*
X011407Y021289D01*
X011718Y021098D02*
X011418Y020798D01*
X011407Y020777D01*
X011358Y020738D01*
X011358Y017258D01*
X011538Y017078D01*
X011538Y016358D01*
X011598Y015938D02*
X011598Y011738D01*
X012378Y010958D01*
X013218Y010958D01*
X013398Y011138D01*
X014058Y011138D01*
X014073Y011183D01*
X014118Y011198D01*
X014118Y012038D01*
X013038Y012038D01*
X012990Y011985D01*
X013039Y012550D02*
X013098Y012578D01*
X013758Y012578D01*
X013786Y012551D01*
X013998Y012818D02*
X012318Y012818D01*
X012198Y012698D01*
X012198Y011798D01*
X012138Y011798D01*
X012198Y011798D02*
X012438Y011558D01*
X012494Y011501D01*
X012738Y011258D02*
X012678Y011198D01*
X012318Y011198D01*
X011838Y011678D01*
X011838Y012518D01*
X012558Y013238D01*
X017658Y013238D01*
X019038Y013238D02*
X019038Y012578D01*
X019069Y012531D01*
X019038Y013238D02*
X015558Y016718D01*
X015558Y017978D01*
X016098Y018158D02*
X017718Y018158D01*
X019038Y016838D01*
X019069Y016795D01*
X020298Y016778D02*
X017898Y019178D01*
X015798Y019178D01*
X016038Y019958D02*
X019518Y023438D01*
X019878Y023258D02*
X022578Y023258D01*
X023958Y024638D01*
X023958Y026558D01*
X024198Y027338D02*
X021918Y025058D01*
X019998Y025058D01*
X019518Y024578D01*
X019518Y024158D02*
X020298Y024938D01*
X021978Y024938D01*
X024498Y027458D01*
X024498Y031238D01*
X024198Y030878D02*
X024198Y027338D01*
X023898Y027398D02*
X023898Y029018D01*
X023538Y029378D01*
X023238Y029438D02*
X023238Y027278D01*
X021798Y025838D01*
X021798Y025658D01*
X021438Y025298D01*
X019098Y025298D01*
X018018Y024218D01*
X017958Y024218D01*
X017778Y024518D02*
X018138Y024518D01*
X018798Y025178D01*
X018798Y025538D01*
X021738Y028478D01*
X022458Y028478D01*
X022458Y028058D02*
X021678Y028058D01*
X019758Y026138D01*
X019698Y025718D02*
X019338Y025718D01*
X019698Y025718D02*
X021198Y027218D01*
X022458Y027218D01*
X022938Y027158D02*
X021498Y025718D01*
X021498Y025178D02*
X019458Y025178D01*
X018258Y023978D01*
X017778Y024518D02*
X017358Y024098D01*
X016998Y023138D02*
X017598Y022538D01*
X015138Y020078D01*
X012498Y020078D01*
X012632Y020002D01*
X012378Y020138D01*
X012378Y019178D01*
X012258Y019178D01*
X012378Y019178D02*
X012378Y017798D01*
X012678Y017498D01*
X013458Y017498D01*
X012678Y017498D02*
X012678Y017078D01*
X012727Y017042D01*
X012678Y017018D01*
X011598Y015938D01*
X012727Y018026D02*
X012738Y018038D01*
X012738Y018458D01*
X014238Y019958D01*
X016038Y019958D01*
X016818Y019838D02*
X017358Y019298D01*
X018138Y019298D01*
X018438Y020378D02*
X019398Y019418D01*
X019818Y019418D01*
X021018Y020618D01*
X021018Y022238D01*
X020718Y021878D02*
X018198Y021878D01*
X017958Y021638D01*
X017958Y021278D01*
X018318Y021278D02*
X017958Y020918D01*
X017958Y020678D01*
X018378Y020978D02*
X019638Y019718D01*
X019638Y021218D02*
X019578Y021278D01*
X018318Y021278D01*
X018258Y021578D02*
X019818Y021578D01*
X020718Y020678D01*
X021438Y023618D02*
X021198Y023858D01*
X021198Y024338D01*
X021498Y024638D02*
X021498Y023918D01*
X021438Y023618D02*
X022578Y023618D01*
X021498Y025178D02*
X022098Y025778D01*
X022938Y027158D02*
X022938Y029078D01*
X022638Y029378D02*
X022458Y029378D01*
X018498Y025418D01*
X018498Y025238D01*
X018438Y026438D02*
X018438Y027158D01*
X022098Y030818D01*
X022458Y030818D01*
X021798Y030698D02*
X022878Y031778D01*
X024138Y031778D01*
X023358Y032438D02*
X024078Y033158D01*
X024498Y033758D02*
X023418Y033758D01*
X020538Y036638D01*
X020538Y038438D01*
X019458Y039518D01*
X019518Y039518D01*
X021198Y041198D01*
X021258Y040838D02*
X021618Y041198D01*
X021914Y041551D02*
X021918Y041558D01*
X022218Y041858D01*
X025518Y041858D01*
X025758Y041618D01*
X025758Y041438D01*
X023658Y039338D01*
X023538Y039338D01*
X023238Y039338D01*
X023238Y039334D01*
X023058Y039278D02*
X023058Y038858D01*
X023058Y039278D02*
X023042Y039334D01*
X022648Y039334D02*
X022638Y039278D01*
X021978Y039278D01*
X021918Y039218D01*
X021798Y039218D01*
X021798Y037718D01*
X021198Y037118D01*
X020898Y037178D02*
X020898Y036638D01*
X022518Y035018D01*
X024738Y035018D01*
X025758Y033998D01*
X025758Y033218D01*
X026058Y033158D02*
X025818Y032918D01*
X025638Y032918D01*
X016458Y023738D01*
X016458Y023678D01*
X013458Y020678D01*
X013398Y021278D02*
X012558Y020438D01*
X012438Y020438D01*
X012378Y020138D02*
X012018Y020498D01*
X012018Y020798D01*
X011963Y020831D01*
X012018Y020858D01*
X012378Y020858D01*
X012198Y021098D02*
X011718Y021098D01*
X011407Y020777D02*
X011418Y020738D01*
X011418Y020438D01*
X011958Y019898D01*
X012378Y020138D02*
X012498Y020018D01*
X012618Y020018D01*
X012632Y020002D01*
X012618Y021158D02*
X012258Y021158D01*
X012198Y021098D01*
X012618Y021158D02*
X013218Y021758D01*
X013218Y022478D01*
X014838Y022478D01*
X016638Y024278D01*
X016698Y023798D02*
X025218Y032318D01*
X025398Y032318D01*
X026058Y033158D02*
X026058Y035438D01*
X024018Y037478D01*
X023598Y037238D02*
X024978Y035858D01*
X024378Y034718D02*
X022638Y034718D01*
X020778Y036578D01*
X020778Y037898D01*
X021258Y038378D01*
X021258Y040838D01*
X021618Y040358D02*
X021618Y040178D01*
X021618Y040358D02*
X022278Y041018D01*
X022698Y041018D01*
X022998Y040718D01*
X022998Y040538D01*
X023042Y040515D01*
X022845Y040515D02*
X022818Y040538D01*
X022818Y040718D01*
X022758Y040778D01*
X022518Y040778D01*
X022398Y040658D01*
X022338Y040718D01*
X022398Y040658D02*
X022398Y040238D01*
X022353Y040215D01*
X022353Y040023D02*
X022338Y039998D01*
X021798Y039998D01*
X021378Y039578D01*
X021378Y037658D01*
X020898Y037178D01*
X021198Y036698D02*
X021258Y036698D01*
X024678Y040118D01*
X025578Y040118D01*
X026178Y041378D02*
X026178Y015278D01*
X026418Y014678D02*
X026418Y012698D01*
X026298Y012578D01*
X025938Y012578D01*
X025878Y012638D01*
X025878Y013238D01*
X025698Y013418D01*
X025668Y013419D01*
X025638Y013418D01*
X024918Y013418D01*
X024912Y013464D01*
X024912Y012971D02*
X024918Y012938D01*
X024978Y012878D01*
X025578Y012878D01*
X025621Y012869D01*
X025638Y012818D01*
X025638Y012458D01*
X026133Y012869D02*
X026178Y012878D01*
X026178Y013418D01*
X026180Y013419D01*
X026178Y013478D01*
X026178Y013898D01*
X024438Y013898D01*
X024318Y013778D01*
X024318Y012338D01*
X024018Y012038D01*
X023967Y011987D01*
X024018Y011978D01*
X024618Y011378D01*
X024666Y011347D01*
X024155Y011347D02*
X024138Y011378D01*
X024018Y011378D01*
X022998Y012398D01*
X023050Y012458D01*
X022998Y012458D01*
X022998Y012578D01*
X022818Y012758D01*
X022398Y012338D01*
X022818Y012758D02*
X022758Y012818D01*
X022758Y013298D01*
X023838Y014378D01*
X023845Y014437D01*
X023898Y014438D01*
X024318Y014858D01*
X024798Y014858D01*
X024798Y015398D01*
X024798Y014858D02*
X025278Y014858D01*
X025638Y014498D01*
X025638Y014198D01*
X025659Y014174D01*
X026171Y014174D02*
X026178Y014138D01*
X026178Y013898D01*
X026418Y014678D02*
X024438Y016658D01*
X021978Y016658D01*
X018858Y019778D01*
X017238Y019778D01*
X016758Y022058D02*
X016758Y022838D01*
X016698Y023138D02*
X016698Y023798D01*
X016698Y023138D02*
X014538Y020978D01*
X014298Y020378D02*
X015978Y022058D01*
X015378Y023378D02*
X017118Y025118D01*
X017118Y029018D01*
X017058Y029078D01*
X017058Y039938D01*
X017028Y039984D01*
X018018Y039698D02*
X016638Y041078D01*
X018018Y039698D02*
X018018Y039038D01*
X018028Y038984D01*
X018018Y038978D01*
X018018Y037898D01*
X017238Y037118D01*
X017238Y031838D01*
X017358Y031718D01*
X016758Y030098D02*
X016758Y029198D01*
X016998Y028958D01*
X016998Y025598D01*
X015318Y023918D01*
X015078Y023918D01*
X014958Y024158D02*
X014778Y023978D01*
X014778Y023618D01*
X014958Y023438D01*
X015258Y023378D02*
X014478Y022598D01*
X013938Y022598D01*
X012918Y023618D01*
X012918Y024398D01*
X013278Y024578D02*
X013878Y025178D01*
X013878Y028238D01*
X013578Y027938D02*
X012378Y026738D01*
X013578Y026738D02*
X011238Y024398D01*
X011238Y024158D01*
X012438Y022958D01*
X012378Y022538D02*
X012378Y022178D01*
X012618Y021938D01*
X012623Y021881D01*
X013218Y021758D02*
X013398Y021758D01*
X013758Y022178D02*
X014118Y022178D01*
X014358Y021938D01*
X014418Y022898D02*
X014418Y024758D01*
X014838Y025178D01*
X014838Y035738D01*
X013638Y036938D01*
X013638Y038018D01*
X013878Y038258D01*
X013938Y038258D01*
X014058Y038378D01*
X014118Y038678D02*
X014358Y038438D01*
X014358Y038018D01*
X014658Y038438D02*
X014658Y038918D01*
X013218Y040358D01*
X012498Y040358D01*
X012198Y040658D01*
X012198Y040958D01*
X013218Y041978D01*
X025578Y041978D01*
X026178Y041378D01*
X024438Y041498D02*
X024438Y040478D01*
X023418Y041498D01*
X023414Y041551D01*
X023538Y040778D02*
X023178Y040778D01*
X022458Y041498D01*
X022414Y041551D01*
X022353Y039826D02*
X022338Y039818D01*
X021798Y039818D01*
X021558Y039578D01*
X021558Y039458D01*
X021798Y039218D01*
X021858Y039518D02*
X021918Y039578D01*
X022338Y039578D01*
X022353Y039629D01*
X023534Y040023D02*
X023538Y040058D01*
X024138Y040058D01*
X024438Y040358D01*
X024438Y040478D01*
X024138Y040418D02*
X023958Y040238D01*
X023538Y040238D01*
X023534Y040220D01*
X024438Y041498D02*
X024414Y041551D01*
X023598Y038318D02*
X023598Y037238D01*
X023238Y036398D02*
X024078Y035558D01*
X023238Y036398D02*
X022278Y036398D01*
X021078Y034718D02*
X023358Y032438D01*
X022758Y031838D01*
X022458Y031838D01*
X022158Y031838D01*
X021198Y030878D01*
X021318Y031178D02*
X020478Y031178D01*
X019638Y030338D01*
X019758Y031898D02*
X020478Y031898D01*
X021198Y032618D01*
X021558Y032258D01*
X021318Y032018D02*
X021558Y031778D01*
X021318Y032018D02*
X021078Y032018D01*
X021318Y031178D02*
X022098Y031958D01*
X022158Y031958D01*
X022458Y032258D01*
X023358Y030998D02*
X022278Y029918D01*
X021558Y029918D01*
X021378Y029018D02*
X017658Y025298D01*
X016698Y026498D02*
X016698Y028298D01*
X016698Y026498D02*
X015678Y025478D01*
X015678Y025298D01*
X015318Y025298D02*
X015918Y025898D01*
X015918Y035018D01*
X014958Y035978D01*
X014958Y038018D01*
X015498Y038258D02*
X015498Y037658D01*
X015498Y038258D02*
X012978Y040778D01*
X012678Y040778D01*
X012673Y040830D01*
X012822Y039793D02*
X012858Y039758D01*
X012858Y039338D01*
X012817Y039291D01*
X012438Y039398D02*
X012798Y039758D01*
X012822Y039793D01*
X013334Y039793D02*
X013338Y039758D01*
X013338Y039338D01*
X013328Y039291D01*
X013278Y039278D01*
X013218Y039218D01*
X013218Y038798D01*
X013187Y038779D01*
X013218Y038738D01*
X013218Y038318D01*
X013185Y038312D01*
X013158Y038258D01*
X013158Y037958D01*
X012798Y037598D01*
X012498Y037598D01*
X012738Y037898D02*
X012738Y038198D01*
X012678Y038258D01*
X012673Y038312D01*
X012678Y038318D01*
X012678Y038738D01*
X012675Y038779D01*
X013518Y038198D02*
X013518Y036338D01*
X014598Y035258D01*
X014598Y025118D01*
X013758Y024278D01*
X013758Y023318D01*
X013458Y023558D02*
X013458Y024158D01*
X014178Y024878D01*
X014178Y027638D01*
X013578Y027518D02*
X013578Y026738D01*
X014958Y024158D02*
X014958Y035798D01*
X013938Y036818D01*
X013938Y037958D01*
X013518Y038198D02*
X013998Y038678D01*
X014118Y038678D01*
X013698Y040358D02*
X013698Y040778D01*
X013673Y040830D01*
X013698Y040358D02*
X016038Y038018D01*
X016038Y035378D01*
X017538Y035438D02*
X017538Y034118D01*
X019758Y031898D01*
X019818Y032198D02*
X020418Y032798D01*
X020418Y037238D01*
X020238Y037418D01*
X019458Y039518D02*
X019038Y039938D01*
X019028Y039984D01*
X018138Y037658D02*
X018138Y037298D01*
X019038Y036398D01*
X020118Y035318D01*
X020118Y032918D01*
X021558Y030698D02*
X021798Y030698D01*
X023238Y029438D02*
X023658Y029858D01*
X023658Y030338D01*
X023598Y028958D02*
X023598Y027098D01*
X021678Y016778D02*
X020298Y016778D01*
X021678Y016778D02*
X022278Y016178D01*
X022698Y016178D01*
X022715Y016176D01*
X023478Y013538D02*
X024078Y013538D01*
X023967Y013464D01*
X024018Y013478D01*
X024078Y013538D01*
X024318Y013778D01*
X024438Y013898D02*
X024918Y014378D01*
X024947Y014437D01*
X023958Y012998D02*
X023967Y012971D01*
X023958Y012998D02*
X023058Y012998D01*
X023050Y012970D01*
X023058Y012458D02*
X023050Y012458D01*
X023058Y012458D02*
X023958Y012458D01*
X023967Y012479D01*
X016338Y014438D02*
X016338Y014558D01*
X014118Y016778D01*
X014118Y019058D01*
X013998Y019178D01*
X013818Y018218D02*
X013818Y016598D01*
X016158Y014258D01*
X016158Y014078D01*
X015918Y012398D02*
X015918Y012098D01*
X015198Y012098D01*
X015018Y012278D01*
X014538Y012278D01*
X013998Y012818D01*
X014118Y012158D02*
X013818Y012158D01*
X013786Y012177D01*
X014118Y012158D02*
X014118Y012038D01*
X014118Y012158D02*
X014958Y012158D01*
X015258Y011858D01*
X015498Y011858D01*
X015515Y011858D01*
X015738Y011618D02*
X014778Y011618D01*
X014778Y011198D01*
X014743Y011183D01*
X014778Y011618D02*
X014778Y011798D01*
X014810Y011803D01*
X014958Y012398D02*
X014838Y012518D01*
X014810Y012551D01*
X014958Y012398D02*
X015498Y012398D01*
X015515Y012370D01*
X015918Y012098D02*
X015918Y011798D01*
X015738Y011618D01*
X015018Y012938D02*
X014418Y012938D01*
X013786Y011803D02*
X013758Y011798D01*
X013278Y011318D01*
X013038Y011318D01*
X012990Y011316D01*
X012978Y011258D01*
X012738Y011258D01*
X012494Y012092D02*
X012498Y012098D01*
X012498Y012518D01*
X012527Y012550D01*
X011958Y012998D02*
X013098Y014138D01*
X013098Y016238D01*
X014658Y017438D02*
X014658Y018158D01*
X013218Y022478D02*
X013218Y022658D01*
X011538Y024338D01*
X015318Y024278D02*
X015318Y025298D01*
X015258Y023378D02*
X015378Y023378D01*
X013158Y034778D02*
X011358Y036578D01*
X011358Y037298D01*
X012018Y037478D02*
X014298Y035198D01*
X013818Y035198D02*
X013218Y035198D01*
D29*
X013218Y035198D03*
X013158Y034778D03*
X013818Y035198D03*
X014298Y035198D03*
X015498Y037658D03*
X014958Y038018D03*
X014658Y038438D03*
X014358Y038018D03*
X014058Y038378D03*
X013938Y037958D03*
X012738Y037898D03*
X012498Y037598D03*
X012018Y037478D03*
X011358Y037298D03*
X012438Y039398D03*
X016038Y035378D03*
X017538Y035438D03*
X018138Y037658D03*
X019038Y036398D03*
X020238Y037418D03*
X021198Y037118D03*
X021198Y036698D03*
X021078Y034718D03*
X020118Y032918D03*
X019818Y032198D03*
X019638Y030338D03*
X021078Y032018D03*
X021198Y032618D03*
X021558Y032258D03*
X021558Y031778D03*
X021198Y030878D03*
X021558Y030698D03*
X021558Y029918D03*
X021378Y029018D03*
X022458Y028478D03*
X022458Y028058D03*
X022458Y027218D03*
X022098Y025778D03*
X021498Y025718D03*
X021498Y024638D03*
X021198Y024338D03*
X021498Y023918D03*
X021018Y022238D03*
X020718Y021878D03*
X020718Y020678D03*
X021057Y018892D03*
X021084Y018413D03*
X021522Y018413D03*
X021467Y018933D03*
X019638Y019718D03*
X019638Y021218D03*
X018438Y020378D03*
X018378Y020978D03*
X017958Y020678D03*
X017958Y021278D03*
X018258Y021578D03*
X017598Y022538D03*
X017358Y024098D03*
X017958Y024218D03*
X018258Y023978D03*
X018498Y025238D03*
X018438Y026438D03*
X019338Y025718D03*
X019758Y026138D03*
X019518Y024578D03*
X019518Y024158D03*
X019518Y023438D03*
X019878Y023258D03*
X018138Y019298D03*
X017238Y019778D03*
X016818Y019838D03*
X016098Y018158D03*
X015558Y017978D03*
X015798Y019178D03*
X014658Y018158D03*
X014658Y017438D03*
X013818Y018218D03*
X013458Y017498D03*
X013098Y016238D03*
X011598Y015938D03*
X011538Y016358D03*
X012258Y019178D03*
X011958Y019898D03*
X012438Y020438D03*
X012378Y020858D03*
X013458Y020678D03*
X013398Y021278D03*
X013398Y021758D03*
X013758Y022178D03*
X014358Y021938D03*
X014418Y022898D03*
X014958Y023438D03*
X015378Y023378D03*
X015078Y023918D03*
X015318Y024278D03*
X015678Y025298D03*
X016638Y024278D03*
X016998Y023138D03*
X016758Y022838D03*
X016758Y022058D03*
X015978Y022058D03*
X014538Y020978D03*
X014298Y020378D03*
X013998Y019178D03*
X012378Y022538D03*
X012438Y022958D03*
X013458Y023558D03*
X013758Y023318D03*
X013278Y024578D03*
X012918Y024398D03*
X012378Y026738D03*
X013578Y027518D03*
X013578Y027938D03*
X013878Y028238D03*
X014178Y027638D03*
X016698Y028298D03*
X016758Y030098D03*
X017358Y031718D03*
X017658Y025298D03*
X022458Y030818D03*
X022458Y031838D03*
X022458Y032258D03*
X023358Y030998D03*
X023658Y030338D03*
X023538Y029378D03*
X023598Y028958D03*
X022938Y029078D03*
X022638Y029378D03*
X023898Y027398D03*
X023598Y027098D03*
X023958Y026558D03*
X025496Y025685D03*
X025476Y025232D03*
X025476Y024700D03*
X022578Y023618D03*
X024198Y030878D03*
X024498Y031238D03*
X024138Y031778D03*
X024078Y033158D03*
X024498Y033758D03*
X024378Y034718D03*
X024078Y035558D03*
X024978Y035858D03*
X024018Y037478D03*
X023598Y038318D03*
X023058Y038858D03*
X023538Y039338D03*
X024138Y040418D03*
X023538Y040778D03*
X022338Y040718D03*
X021858Y039518D03*
X021618Y040178D03*
X021618Y041198D03*
X021198Y041198D03*
X022278Y036398D03*
X025398Y032318D03*
X025758Y033218D03*
X025578Y040118D03*
X016638Y041078D03*
X011538Y024338D03*
X016338Y014438D03*
X016158Y014078D03*
X015918Y012398D03*
X015018Y012938D03*
X014418Y012938D03*
X012138Y011798D03*
X011958Y012998D03*
X017658Y013238D03*
X022398Y012338D03*
X023478Y013538D03*
X024798Y015398D03*
X026178Y015278D03*
X025638Y012458D03*
D30*
X011470Y011191D02*
X011350Y011357D01*
X011286Y011553D01*
X011278Y011656D01*
X011278Y016202D01*
X011284Y016189D01*
X011368Y016104D01*
X011478Y016058D01*
X011598Y016058D01*
X011708Y016104D01*
X011792Y016189D01*
X011838Y016299D01*
X011838Y016418D01*
X011792Y016528D01*
X011708Y016613D01*
X011708Y017038D01*
X011793Y017038D01*
X011939Y017099D01*
X012051Y017210D01*
X012111Y017357D01*
X012111Y017515D01*
X012051Y017661D01*
X011939Y017772D01*
X011793Y017833D01*
X011635Y017833D01*
X011528Y017789D01*
X011528Y018264D01*
X011635Y018219D01*
X011793Y018219D01*
X011939Y018280D01*
X012051Y018392D01*
X012111Y018538D01*
X012111Y018696D01*
X012051Y018842D01*
X011939Y018953D01*
X011793Y019014D01*
X011635Y019014D01*
X011528Y018970D01*
X011528Y020088D01*
X011658Y019958D01*
X011658Y019839D01*
X011704Y019729D01*
X011788Y019644D01*
X011898Y019598D01*
X012018Y019598D01*
X012128Y019644D01*
X012166Y019682D01*
X012167Y019681D01*
X012208Y019657D01*
X012254Y019645D01*
X012623Y019645D01*
X012623Y019993D01*
X012641Y019993D01*
X012641Y020011D01*
X013166Y020011D01*
X013166Y020203D01*
X013154Y020249D01*
X013130Y020290D01*
X013097Y020323D01*
X013056Y020347D01*
X013010Y020359D01*
X012730Y020359D01*
X012737Y020378D01*
X013200Y020840D01*
X013158Y020738D01*
X013158Y020619D01*
X013204Y020509D01*
X013288Y020424D01*
X013398Y020378D01*
X013518Y020378D01*
X013628Y020424D01*
X013712Y020509D01*
X013758Y020619D01*
X013758Y020738D01*
X016528Y023508D01*
X016528Y023209D01*
X014598Y021278D01*
X014478Y021278D01*
X014368Y021233D01*
X014284Y021148D01*
X014238Y021038D01*
X014238Y020919D01*
X014284Y020809D01*
X014368Y020724D01*
X014393Y020714D01*
X014358Y020678D01*
X014238Y020678D01*
X014128Y020633D01*
X014044Y020548D01*
X013998Y020438D01*
X013998Y020319D01*
X014044Y020209D01*
X014128Y020124D01*
X014153Y020114D01*
X014068Y020029D01*
X013093Y019054D01*
X013093Y019265D01*
X013011Y019347D01*
X012443Y019347D01*
X012361Y019265D01*
X012361Y018755D01*
X012443Y018673D01*
X012713Y018673D01*
X012568Y018529D01*
X012568Y018363D01*
X012443Y018363D01*
X012361Y018281D01*
X012361Y017771D01*
X012443Y017689D01*
X013011Y017689D01*
X013093Y017771D01*
X013093Y018281D01*
X013011Y018363D01*
X012908Y018363D01*
X012908Y018388D01*
X013698Y019178D01*
X013698Y019119D01*
X013639Y019119D01*
X013698Y019119D02*
X013744Y019009D01*
X013828Y018924D01*
X013938Y018878D01*
X013948Y018878D01*
X013948Y018489D01*
X013878Y018518D01*
X013758Y018518D01*
X013648Y018473D01*
X013564Y018388D01*
X013518Y018278D01*
X013518Y018159D01*
X013564Y018049D01*
X013648Y017964D01*
X013648Y016528D01*
X013748Y016428D01*
X015916Y014260D01*
X015904Y014248D01*
X015858Y014138D01*
X015858Y014019D01*
X015904Y013909D01*
X015988Y013824D01*
X016098Y013778D01*
X016218Y013778D01*
X016328Y013824D01*
X016412Y013909D01*
X016458Y014019D01*
X016458Y014138D01*
X016449Y014160D01*
X016508Y014184D01*
X016592Y014269D01*
X016638Y014379D01*
X016638Y014498D01*
X016592Y014608D01*
X016508Y014693D01*
X016399Y014738D01*
X015517Y015620D01*
X015556Y015626D01*
X015640Y015654D01*
X015719Y015694D01*
X015791Y015746D01*
X015854Y015809D01*
X015906Y015881D01*
X015946Y015960D01*
X015974Y016044D01*
X015976Y016060D01*
X018868Y013168D01*
X018868Y013014D01*
X018773Y012975D01*
X018625Y012828D01*
X018545Y012635D01*
X018545Y012427D01*
X018625Y012234D01*
X018773Y012087D01*
X018965Y012007D01*
X019173Y012007D01*
X019366Y012087D01*
X019513Y012234D01*
X019593Y012427D01*
X019593Y012635D01*
X019513Y012828D01*
X019366Y012975D01*
X019208Y013040D01*
X019208Y013309D01*
X019108Y013408D01*
X015728Y016789D01*
X015728Y017724D01*
X015812Y017809D01*
X015858Y017919D01*
X015858Y017974D01*
X015928Y017904D01*
X016038Y017858D01*
X016158Y017858D01*
X016268Y017904D01*
X016352Y017988D01*
X017648Y017988D01*
X018602Y017034D01*
X018545Y016899D01*
X018545Y016690D01*
X018625Y016498D01*
X018773Y016350D01*
X018965Y016271D01*
X019173Y016271D01*
X019366Y016350D01*
X019513Y016498D01*
X019593Y016690D01*
X019593Y016899D01*
X019513Y017091D01*
X019366Y017239D01*
X019173Y017318D01*
X018965Y017318D01*
X018847Y017270D01*
X017788Y018328D01*
X016352Y018328D01*
X016268Y018413D01*
X016158Y018458D01*
X016038Y018458D01*
X015928Y018413D01*
X015844Y018328D01*
X015798Y018218D01*
X015798Y018163D01*
X015728Y018233D01*
X015618Y018278D01*
X015498Y018278D01*
X015388Y018233D01*
X015304Y018148D01*
X015258Y018038D01*
X015258Y017919D01*
X015304Y017809D01*
X015388Y017724D01*
X015388Y016648D01*
X015472Y016564D01*
X015472Y016224D01*
X015376Y016224D01*
X015376Y016740D01*
X015292Y016726D01*
X015207Y016699D01*
X015128Y016659D01*
X015056Y016607D01*
X014994Y016544D01*
X014941Y016472D01*
X014901Y016393D01*
X014874Y016308D01*
X014867Y016269D01*
X014288Y016849D01*
X014288Y019095D01*
X014298Y019119D01*
X015498Y019119D01*
X015544Y019009D01*
X015628Y018924D01*
X015738Y018878D01*
X015858Y018878D01*
X015968Y018924D01*
X016052Y019008D01*
X017828Y019008D01*
X020128Y016708D01*
X020228Y016608D01*
X020407Y016608D01*
X020322Y016523D01*
X020228Y016298D01*
X020228Y016055D01*
X020322Y015830D01*
X020494Y015657D01*
X020719Y015564D01*
X020963Y015564D01*
X021188Y015657D01*
X021360Y015830D01*
X021453Y016055D01*
X021453Y016298D01*
X021360Y016523D01*
X021275Y016608D01*
X021608Y016608D01*
X022108Y016108D01*
X022208Y016008D01*
X022217Y016008D01*
X022271Y015880D01*
X022418Y015732D01*
X022611Y015653D01*
X022819Y015653D01*
X023012Y015732D01*
X023159Y015880D01*
X023239Y016072D01*
X023239Y016281D01*
X023159Y016473D01*
X023144Y016488D01*
X024368Y016488D01*
X026248Y014608D01*
X026248Y014491D01*
X025975Y014491D01*
X025942Y014459D01*
X025941Y014462D01*
X025907Y014495D01*
X025866Y014519D01*
X025820Y014531D01*
X025659Y014531D01*
X025659Y014174D01*
X025659Y014174D01*
X025659Y014531D01*
X025497Y014531D01*
X025451Y014519D01*
X025410Y014495D01*
X025377Y014462D01*
X025363Y014437D01*
X025363Y014810D01*
X025281Y014892D01*
X024614Y014892D01*
X024532Y014810D01*
X024532Y014232D01*
X024368Y014068D01*
X024248Y013948D01*
X024008Y013708D01*
X023732Y013708D01*
X023648Y013793D01*
X023538Y013838D01*
X023418Y013838D01*
X023308Y013793D01*
X023224Y013708D01*
X023178Y013598D01*
X023178Y013479D01*
X023224Y013369D01*
X023308Y013284D01*
X023418Y013238D01*
X023538Y013238D01*
X023624Y013274D01*
X023673Y013225D01*
X024148Y013225D01*
X024148Y013210D01*
X023673Y013210D01*
X023632Y013168D01*
X023365Y013168D01*
X023285Y013248D01*
X022815Y013248D01*
X022733Y013166D01*
X022733Y012774D01*
X022765Y012742D01*
X022762Y012740D01*
X022729Y012707D01*
X022705Y012666D01*
X022693Y012620D01*
X022693Y012458D01*
X022693Y012297D01*
X022705Y012251D01*
X022729Y012210D01*
X022762Y012177D01*
X022804Y012153D01*
X022849Y012141D01*
X023050Y012141D01*
X023050Y012458D01*
X023050Y012458D01*
X022693Y012458D01*
X023050Y012458D01*
X023050Y012458D01*
X023050Y012141D01*
X023251Y012141D01*
X023297Y012153D01*
X023338Y012177D01*
X023371Y012210D01*
X023395Y012251D01*
X023407Y012297D01*
X023407Y012458D01*
X023050Y012458D01*
X023050Y012458D01*
X023407Y012458D01*
X023407Y012620D01*
X023395Y012666D01*
X023371Y012707D01*
X023338Y012740D01*
X023335Y012742D01*
X023367Y012774D01*
X023367Y012828D01*
X023591Y012828D01*
X023591Y012815D01*
X023661Y012745D01*
X023620Y012722D01*
X023587Y012688D01*
X023563Y012647D01*
X023551Y012601D01*
X023551Y012479D01*
X023551Y012357D01*
X023563Y012311D01*
X023587Y012270D01*
X023620Y012237D01*
X023661Y012214D01*
X023591Y012144D01*
X023591Y011831D01*
X023673Y011749D01*
X024007Y011749D01*
X024052Y011704D01*
X023993Y011704D01*
X023947Y011692D01*
X023906Y011668D01*
X023873Y011635D01*
X023849Y011594D01*
X023837Y011548D01*
X023837Y011347D01*
X023837Y011146D01*
X023849Y011100D01*
X023873Y011059D01*
X023906Y011026D01*
X023947Y011002D01*
X023961Y010998D01*
X015099Y010998D01*
X015099Y011438D01*
X015089Y011448D01*
X015808Y011448D01*
X015908Y011548D01*
X016088Y011728D01*
X016088Y012144D01*
X016172Y012229D01*
X016218Y012339D01*
X016218Y012458D01*
X016172Y012568D01*
X016088Y012653D01*
X015978Y012698D01*
X015858Y012698D01*
X015748Y012653D01*
X015743Y012648D01*
X015280Y012648D01*
X015201Y012568D01*
X015186Y012568D01*
X015186Y012683D01*
X015188Y012684D01*
X015272Y012769D01*
X015318Y012879D01*
X015318Y012998D01*
X015289Y013068D01*
X017404Y013068D01*
X017488Y012984D01*
X017598Y012938D01*
X017718Y012938D01*
X017828Y012984D01*
X017912Y013069D01*
X017958Y013179D01*
X017958Y013298D01*
X017912Y013408D01*
X017828Y013493D01*
X017718Y013538D01*
X017598Y013538D01*
X017488Y013493D01*
X017404Y013408D01*
X012608Y013408D01*
X013268Y014068D01*
X013268Y015984D01*
X013352Y016069D01*
X013398Y016179D01*
X013398Y016298D01*
X013352Y016408D01*
X013268Y016493D01*
X013158Y016538D01*
X013038Y016538D01*
X012928Y016493D01*
X012844Y016408D01*
X012798Y016298D01*
X012798Y016179D01*
X012844Y016069D01*
X012928Y015984D01*
X012928Y014209D01*
X012018Y013298D01*
X011898Y013298D01*
X011788Y013253D01*
X011704Y013168D01*
X011658Y013058D01*
X011658Y012939D01*
X011704Y012829D01*
X011788Y012744D01*
X011813Y012734D01*
X011668Y012589D01*
X011668Y011608D01*
X011768Y011508D01*
X012248Y011028D01*
X012666Y011028D01*
X012696Y010998D01*
X011935Y010998D01*
X011832Y011007D01*
X011637Y011070D01*
X011470Y011191D01*
X011468Y011194D02*
X012082Y011194D01*
X011924Y011352D02*
X011353Y011352D01*
X011300Y011511D02*
X011765Y011511D01*
X011668Y011669D02*
X011278Y011669D01*
X011278Y011828D02*
X011668Y011828D01*
X011668Y011986D02*
X011278Y011986D01*
X011278Y012145D02*
X011668Y012145D01*
X011668Y012303D02*
X011278Y012303D01*
X011278Y012462D02*
X011668Y012462D01*
X011700Y012620D02*
X011278Y012620D01*
X011278Y012779D02*
X011753Y012779D01*
X011658Y012937D02*
X011278Y012937D01*
X011278Y013096D02*
X011674Y013096D01*
X011792Y013254D02*
X011278Y013254D01*
X011278Y013413D02*
X012132Y013413D01*
X012291Y013571D02*
X011278Y013571D01*
X011278Y013730D02*
X012449Y013730D01*
X012608Y013888D02*
X011278Y013888D01*
X011278Y014047D02*
X012766Y014047D01*
X012925Y014205D02*
X011278Y014205D01*
X011278Y014364D02*
X012928Y014364D01*
X012928Y014522D02*
X011278Y014522D01*
X011278Y014681D02*
X012928Y014681D01*
X012928Y014839D02*
X011278Y014839D01*
X011278Y014998D02*
X012928Y014998D01*
X012928Y015156D02*
X011278Y015156D01*
X011278Y015315D02*
X012928Y015315D01*
X012928Y015473D02*
X011278Y015473D01*
X011278Y015632D02*
X012928Y015632D01*
X012928Y015790D02*
X011278Y015790D01*
X011278Y015949D02*
X012928Y015949D01*
X012827Y016107D02*
X011711Y016107D01*
X011824Y016266D02*
X012798Y016266D01*
X012860Y016424D02*
X011835Y016424D01*
X011738Y016583D02*
X013648Y016583D01*
X013648Y016741D02*
X013101Y016741D01*
X013097Y016734D02*
X013121Y016776D01*
X013133Y016821D01*
X013133Y017023D01*
X012745Y017023D01*
X012745Y016665D01*
X012977Y016665D01*
X013023Y016677D01*
X013064Y016701D01*
X013097Y016734D01*
X013133Y016900D02*
X013648Y016900D01*
X013648Y017059D02*
X012745Y017059D01*
X012745Y017060D02*
X013133Y017060D01*
X013133Y017262D01*
X013121Y017308D01*
X013097Y017349D01*
X013064Y017383D01*
X013023Y017406D01*
X012977Y017419D01*
X012745Y017419D01*
X012745Y017060D01*
X012709Y017060D01*
X012709Y017419D01*
X012477Y017419D01*
X012431Y017406D01*
X012390Y017383D01*
X012357Y017349D01*
X012333Y017308D01*
X012321Y017262D01*
X012321Y017060D01*
X012709Y017060D01*
X012709Y017023D01*
X012745Y017023D01*
X012745Y017060D01*
X012709Y017059D02*
X011842Y017059D01*
X011708Y016900D02*
X012321Y016900D01*
X012321Y016821D02*
X012333Y016776D01*
X012357Y016734D01*
X012390Y016701D01*
X012431Y016677D01*
X012477Y016665D01*
X012709Y016665D01*
X012709Y017023D01*
X012321Y017023D01*
X012321Y016821D01*
X012353Y016741D02*
X011708Y016741D01*
X012053Y017217D02*
X012321Y017217D01*
X012383Y017376D02*
X012111Y017376D01*
X012103Y017534D02*
X013648Y017534D01*
X013648Y017376D02*
X013071Y017376D01*
X013133Y017217D02*
X013648Y017217D01*
X013648Y017693D02*
X013015Y017693D01*
X013093Y017851D02*
X013648Y017851D01*
X013603Y018010D02*
X013093Y018010D01*
X013093Y018168D02*
X013518Y018168D01*
X013538Y018327D02*
X013048Y018327D01*
X013005Y018485D02*
X013677Y018485D01*
X013948Y018644D02*
X013163Y018644D01*
X013322Y018802D02*
X013948Y018802D01*
X013792Y018961D02*
X013480Y018961D01*
X013317Y019278D02*
X013081Y019278D01*
X013093Y019119D02*
X013158Y019119D01*
X013010Y019645D02*
X013056Y019657D01*
X013097Y019681D01*
X013130Y019714D01*
X013154Y019755D01*
X013166Y019801D01*
X013166Y019993D01*
X012641Y019993D01*
X012641Y019645D01*
X013010Y019645D01*
X013153Y019753D02*
X013792Y019753D01*
X013634Y019595D02*
X011528Y019595D01*
X011528Y019753D02*
X011693Y019753D01*
X011658Y019912D02*
X011528Y019912D01*
X011528Y020070D02*
X011546Y020070D01*
X011710Y020387D02*
X012138Y020387D01*
X012138Y020379D02*
X012163Y020319D01*
X012134Y020290D01*
X012110Y020249D01*
X012098Y020203D01*
X012098Y020165D01*
X012018Y020198D01*
X011898Y020198D01*
X011597Y020500D01*
X011642Y020500D01*
X011686Y020543D01*
X011716Y020526D01*
X011762Y020514D01*
X011962Y020514D01*
X011962Y020831D01*
X011963Y020831D01*
X011963Y020831D01*
X012320Y020831D01*
X012320Y020714D01*
X012378Y020738D01*
X012498Y020738D01*
X012582Y020703D01*
X013098Y021219D01*
X013098Y021338D01*
X013038Y021338D01*
X013098Y021338D02*
X013140Y021440D01*
X012788Y021088D01*
X012688Y020988D01*
X012328Y020988D01*
X012320Y020980D01*
X012320Y020831D01*
X011963Y020831D01*
X011963Y020514D01*
X012144Y020514D01*
X012138Y020498D01*
X012138Y020379D01*
X012105Y020229D02*
X011868Y020229D01*
X011962Y020546D02*
X011963Y020546D01*
X011962Y020704D02*
X011963Y020704D01*
X012320Y020863D02*
X012742Y020863D01*
X012721Y021021D02*
X012900Y021021D01*
X012879Y021180D02*
X013059Y021180D01*
X013064Y020704D02*
X013158Y020704D01*
X013188Y020546D02*
X012905Y020546D01*
X012747Y020387D02*
X013378Y020387D01*
X013538Y020387D02*
X013998Y020387D01*
X014035Y020229D02*
X013160Y020229D01*
X013166Y020070D02*
X014109Y020070D01*
X013951Y019912D02*
X013166Y019912D01*
X012641Y019912D02*
X012623Y019912D01*
X012623Y019753D02*
X012641Y019753D01*
X012373Y019278D02*
X011528Y019278D01*
X011528Y019436D02*
X013475Y019436D01*
X013998Y019478D02*
X014308Y019788D01*
X016108Y019788D01*
X017658Y021338D01*
X017658Y021338D01*
X017658Y021219D01*
X017704Y021109D01*
X017788Y021024D01*
X017813Y021014D01*
X017788Y020989D01*
X017788Y020933D01*
X017704Y020848D01*
X017658Y020738D01*
X017658Y020619D01*
X017704Y020509D01*
X017788Y020424D01*
X017898Y020378D01*
X018018Y020378D01*
X018128Y020424D01*
X018138Y020434D01*
X018138Y020319D01*
X018184Y020209D01*
X018268Y020124D01*
X018378Y020078D01*
X018498Y020078D01*
X018628Y019948D01*
X017492Y019948D01*
X017408Y020033D01*
X017298Y020078D01*
X017178Y020078D01*
X017068Y020033D01*
X017058Y020023D01*
X016988Y020093D01*
X016878Y020138D01*
X016758Y020138D01*
X016648Y020093D01*
X016564Y020008D01*
X016518Y019898D01*
X016518Y019779D01*
X016564Y019669D01*
X016648Y019584D01*
X016758Y019538D01*
X016878Y019538D01*
X017068Y019348D01*
X016052Y019348D01*
X015968Y019433D01*
X015858Y019478D01*
X015738Y019478D01*
X015628Y019433D01*
X015544Y019348D01*
X015498Y019238D01*
X015498Y019119D01*
X015514Y019278D02*
X014282Y019278D01*
X014298Y019238D02*
X014252Y019348D01*
X014168Y019433D01*
X014058Y019478D01*
X013998Y019478D01*
X014114Y019595D02*
X016638Y019595D01*
X016529Y019753D02*
X014273Y019753D01*
X014160Y019436D02*
X015636Y019436D01*
X015592Y018961D02*
X014288Y018961D01*
X014298Y019119D02*
X014298Y019238D01*
X014288Y018802D02*
X018034Y018802D01*
X017876Y018961D02*
X016004Y018961D01*
X015960Y019436D02*
X016980Y019436D01*
X017011Y020070D02*
X017158Y020070D01*
X017318Y020070D02*
X018506Y020070D01*
X018175Y020229D02*
X016548Y020229D01*
X016625Y020070D02*
X016390Y020070D01*
X016523Y019912D02*
X016231Y019912D01*
X015968Y020128D02*
X014472Y020128D01*
X014552Y020209D01*
X014598Y020319D01*
X014598Y020438D01*
X015918Y021758D01*
X016038Y021758D01*
X016148Y021804D01*
X016232Y021889D01*
X016278Y021999D01*
X016278Y022118D01*
X016232Y022228D01*
X016148Y022313D01*
X016123Y022323D01*
X016493Y022693D01*
X016504Y022669D01*
X016588Y022584D01*
X016588Y022313D01*
X016504Y022228D01*
X016458Y022118D01*
X016458Y021999D01*
X016504Y021889D01*
X016588Y021804D01*
X016698Y021758D01*
X016818Y021758D01*
X016928Y021804D01*
X017012Y021889D01*
X017058Y021999D01*
X017058Y022118D01*
X017012Y022228D01*
X016928Y022313D01*
X016928Y022584D01*
X017012Y022669D01*
X017058Y022779D01*
X017058Y022898D01*
X017012Y023008D01*
X016928Y023093D01*
X016868Y023118D01*
X016868Y023728D01*
X017093Y023953D01*
X017104Y023929D01*
X017188Y023844D01*
X017298Y023798D01*
X017418Y023798D01*
X017528Y023844D01*
X017612Y023929D01*
X017658Y024039D01*
X017658Y024158D01*
X017658Y024158D01*
X017704Y024049D01*
X017788Y023964D01*
X017898Y023918D01*
X017958Y023918D01*
X018004Y023809D01*
X018088Y023724D01*
X018198Y023678D01*
X018318Y023678D01*
X018428Y023724D01*
X018512Y023809D01*
X018558Y023919D01*
X018558Y024038D01*
X019260Y024740D01*
X019218Y024638D01*
X019218Y024519D01*
X019264Y024409D01*
X019304Y024368D01*
X019264Y024328D01*
X019218Y024218D01*
X019218Y024099D01*
X019264Y023989D01*
X019348Y023904D01*
X019458Y023858D01*
X019578Y023858D01*
X019688Y023904D01*
X019772Y023989D01*
X019818Y024099D01*
X019818Y024218D01*
X020368Y024768D01*
X021227Y024768D01*
X021198Y024698D01*
X021198Y024638D01*
X021138Y024638D01*
X021028Y024593D01*
X020944Y024508D01*
X020943Y024508D02*
X020108Y024508D01*
X020266Y024667D02*
X021198Y024667D01*
X020944Y024508D02*
X020898Y024398D01*
X020898Y024279D01*
X020944Y024169D01*
X021028Y024084D01*
X021028Y023788D01*
X021368Y023448D01*
X022324Y023448D01*
X022344Y023428D01*
X020132Y023428D01*
X020048Y023513D01*
X019938Y023558D01*
X019818Y023558D01*
X019797Y023550D01*
X019772Y023608D01*
X019688Y023693D01*
X019578Y023738D01*
X019458Y023738D01*
X019348Y023693D01*
X019264Y023608D01*
X019218Y023498D01*
X019218Y023379D01*
X015968Y020128D01*
X016068Y020229D02*
X014561Y020229D01*
X014598Y020387D02*
X016226Y020387D01*
X016385Y020546D02*
X014705Y020546D01*
X014864Y020704D02*
X016543Y020704D01*
X016702Y020863D02*
X015022Y020863D01*
X015181Y021021D02*
X016860Y021021D01*
X017019Y021180D02*
X015339Y021180D01*
X015498Y021338D02*
X017177Y021338D01*
X017336Y021497D02*
X015656Y021497D01*
X015815Y021655D02*
X017494Y021655D01*
X017653Y021814D02*
X016937Y021814D01*
X017047Y021972D02*
X017811Y021972D01*
X017970Y022131D02*
X017053Y022131D01*
X016952Y022289D02*
X018128Y022289D01*
X018287Y022448D02*
X016928Y022448D01*
X016950Y022606D02*
X018445Y022606D01*
X018604Y022765D02*
X017052Y022765D01*
X017048Y022923D02*
X018762Y022923D01*
X018921Y023082D02*
X016939Y023082D01*
X016868Y023240D02*
X019079Y023240D01*
X019218Y023399D02*
X016868Y023399D01*
X016868Y023557D02*
X019242Y023557D01*
X019403Y023716D02*
X018407Y023716D01*
X018539Y023874D02*
X019421Y023874D01*
X019615Y023874D02*
X021028Y023874D01*
X021028Y024033D02*
X019790Y024033D01*
X019818Y024191D02*
X020934Y024191D01*
X020898Y024350D02*
X019949Y024350D01*
X019633Y023716D02*
X021101Y023716D01*
X021259Y023557D02*
X019941Y023557D01*
X019815Y023557D02*
X019794Y023557D01*
X019599Y023147D02*
X019624Y023089D01*
X019708Y023004D01*
X019818Y022958D01*
X019938Y022958D01*
X020048Y023004D01*
X020132Y023088D01*
X022648Y023088D01*
X022748Y023188D01*
X024128Y024568D01*
X024128Y026304D01*
X024212Y026389D01*
X024258Y026499D01*
X024258Y026618D01*
X024212Y026728D01*
X024128Y026813D01*
X024103Y026823D01*
X024668Y027388D01*
X024668Y030984D01*
X024752Y031069D01*
X024798Y031179D01*
X024798Y031298D01*
X024752Y031408D01*
X024668Y031493D01*
X024643Y031503D01*
X025216Y032076D01*
X025228Y032064D01*
X025338Y032018D01*
X025458Y032018D01*
X025568Y032064D01*
X025652Y032149D01*
X025698Y032259D01*
X025698Y032378D01*
X025652Y032488D01*
X025568Y032573D01*
X025543Y032583D01*
X025708Y032748D01*
X025888Y032748D01*
X026008Y032868D01*
X026008Y015533D01*
X025924Y015448D01*
X025913Y015424D01*
X024508Y016828D01*
X022048Y016828D01*
X019628Y019248D01*
X019888Y019248D01*
X019988Y019348D01*
X021188Y020548D01*
X021188Y021984D01*
X021272Y022069D01*
X021318Y022179D01*
X021318Y022298D01*
X021272Y022408D01*
X021188Y022493D01*
X021078Y022538D01*
X020958Y022538D01*
X020848Y022493D01*
X020764Y022408D01*
X020718Y022298D01*
X020718Y022179D01*
X020718Y022178D01*
X020658Y022178D01*
X020548Y022133D01*
X020464Y022048D01*
X018368Y022048D01*
X019458Y023138D01*
X019578Y023138D01*
X019599Y023147D01*
X019631Y023082D02*
X019401Y023082D01*
X019243Y022923D02*
X026008Y022923D01*
X026008Y022765D02*
X019084Y022765D01*
X018926Y022606D02*
X026008Y022606D01*
X026008Y022448D02*
X021233Y022448D01*
X021318Y022289D02*
X026008Y022289D01*
X026008Y022131D02*
X021298Y022131D01*
X021188Y021972D02*
X026008Y021972D01*
X026008Y021814D02*
X021188Y021814D01*
X021188Y021655D02*
X026008Y021655D01*
X026008Y021497D02*
X021188Y021497D01*
X021188Y021338D02*
X026008Y021338D01*
X026008Y021180D02*
X021188Y021180D01*
X021188Y021021D02*
X026008Y021021D01*
X026008Y020863D02*
X021188Y020863D01*
X021188Y020704D02*
X026008Y020704D01*
X026008Y020546D02*
X021185Y020546D01*
X021027Y020387D02*
X026008Y020387D01*
X026008Y020229D02*
X020868Y020229D01*
X020710Y020070D02*
X026008Y020070D01*
X026008Y019912D02*
X020551Y019912D01*
X020393Y019753D02*
X026008Y019753D01*
X026008Y019595D02*
X020234Y019595D01*
X020076Y019436D02*
X026008Y019436D01*
X026008Y019278D02*
X019917Y019278D01*
X019758Y019119D02*
X026008Y019119D01*
X026008Y018961D02*
X019916Y018961D01*
X020075Y018802D02*
X026008Y018802D01*
X026008Y018644D02*
X020233Y018644D01*
X020392Y018485D02*
X026008Y018485D01*
X026008Y018327D02*
X020550Y018327D01*
X020709Y018168D02*
X026008Y018168D01*
X026008Y018010D02*
X020867Y018010D01*
X021026Y017851D02*
X026008Y017851D01*
X026008Y017693D02*
X021184Y017693D01*
X021343Y017534D02*
X026008Y017534D01*
X026008Y017376D02*
X021501Y017376D01*
X021660Y017217D02*
X026008Y017217D01*
X026008Y017059D02*
X021818Y017059D01*
X021977Y016900D02*
X026008Y016900D01*
X026008Y016741D02*
X024595Y016741D01*
X024754Y016583D02*
X026008Y016583D01*
X026008Y016424D02*
X024912Y016424D01*
X025071Y016266D02*
X026008Y016266D01*
X026008Y016107D02*
X025229Y016107D01*
X025388Y015949D02*
X026008Y015949D01*
X026008Y015790D02*
X025546Y015790D01*
X025705Y015632D02*
X026008Y015632D01*
X025949Y015473D02*
X025863Y015473D01*
X025700Y015156D02*
X017360Y015156D01*
X017519Y014998D02*
X025858Y014998D01*
X026017Y014839D02*
X025333Y014839D01*
X025363Y014681D02*
X026175Y014681D01*
X026248Y014522D02*
X025854Y014522D01*
X025659Y014522D02*
X025659Y014522D01*
X025659Y014364D02*
X025659Y014364D01*
X025659Y014205D02*
X025659Y014205D01*
X025464Y014522D02*
X025363Y014522D01*
X025541Y015315D02*
X017202Y015315D01*
X017043Y015473D02*
X025383Y015473D01*
X025224Y015632D02*
X021127Y015632D01*
X021321Y015790D02*
X022360Y015790D01*
X022242Y015949D02*
X021410Y015949D01*
X021453Y016107D02*
X022109Y016107D01*
X021950Y016266D02*
X021453Y016266D01*
X021401Y016424D02*
X021792Y016424D01*
X021633Y016583D02*
X021300Y016583D01*
X020381Y016583D02*
X019549Y016583D01*
X019593Y016741D02*
X020095Y016741D01*
X019936Y016900D02*
X019593Y016900D01*
X019527Y017059D02*
X019778Y017059D01*
X019619Y017217D02*
X019388Y017217D01*
X019461Y017376D02*
X018741Y017376D01*
X018583Y017534D02*
X019302Y017534D01*
X019144Y017693D02*
X018424Y017693D01*
X018266Y017851D02*
X018985Y017851D01*
X018827Y018010D02*
X018107Y018010D01*
X017949Y018168D02*
X018668Y018168D01*
X018510Y018327D02*
X017790Y018327D01*
X017785Y017851D02*
X015830Y017851D01*
X015728Y017693D02*
X017944Y017693D01*
X018102Y017534D02*
X015728Y017534D01*
X015728Y017376D02*
X018261Y017376D01*
X018419Y017217D02*
X015728Y017217D01*
X015728Y017059D02*
X018578Y017059D01*
X018546Y016900D02*
X015728Y016900D01*
X015775Y016741D02*
X017061Y016741D01*
X016951Y016696D02*
X017176Y016789D01*
X017419Y016789D01*
X017645Y016696D01*
X017817Y016523D01*
X017910Y016298D01*
X017910Y016055D01*
X017817Y015830D01*
X017645Y015657D01*
X017419Y015564D01*
X017176Y015564D01*
X016951Y015657D01*
X016778Y015830D01*
X016685Y016055D01*
X016685Y016298D01*
X016778Y016523D01*
X016951Y016696D01*
X016838Y016583D02*
X015934Y016583D01*
X016092Y016424D02*
X016737Y016424D01*
X016685Y016266D02*
X016251Y016266D01*
X016409Y016107D02*
X016685Y016107D01*
X016729Y015949D02*
X016568Y015949D01*
X016726Y015790D02*
X016817Y015790D01*
X016885Y015632D02*
X017012Y015632D01*
X016721Y015315D02*
X015822Y015315D01*
X015980Y015156D02*
X016880Y015156D01*
X017038Y014998D02*
X016139Y014998D01*
X016297Y014839D02*
X017197Y014839D01*
X017355Y014681D02*
X016520Y014681D01*
X016628Y014522D02*
X017514Y014522D01*
X017672Y014364D02*
X016632Y014364D01*
X016529Y014205D02*
X017831Y014205D01*
X017989Y014047D02*
X016458Y014047D01*
X016392Y013888D02*
X018148Y013888D01*
X018306Y013730D02*
X012930Y013730D01*
X013088Y013888D02*
X015924Y013888D01*
X015858Y014047D02*
X013247Y014047D01*
X013268Y014205D02*
X015886Y014205D01*
X015812Y014364D02*
X013268Y014364D01*
X013268Y014522D02*
X015654Y014522D01*
X015495Y014681D02*
X013268Y014681D01*
X013268Y014839D02*
X015337Y014839D01*
X015178Y014998D02*
X013268Y014998D01*
X013268Y015156D02*
X015020Y015156D01*
X014861Y015315D02*
X013268Y015315D01*
X013268Y015473D02*
X014703Y015473D01*
X014544Y015632D02*
X013268Y015632D01*
X013268Y015790D02*
X014386Y015790D01*
X014227Y015949D02*
X013268Y015949D01*
X013368Y016107D02*
X014069Y016107D01*
X013910Y016266D02*
X013398Y016266D01*
X013336Y016424D02*
X013752Y016424D01*
X014288Y016900D02*
X015388Y016900D01*
X015388Y017059D02*
X014288Y017059D01*
X014288Y017217D02*
X014455Y017217D01*
X014488Y017184D02*
X014598Y017138D01*
X014718Y017138D01*
X014828Y017184D01*
X014912Y017269D01*
X014958Y017379D01*
X014958Y017498D01*
X014912Y017608D01*
X014828Y017693D01*
X014828Y017904D01*
X014912Y017989D01*
X014958Y018099D01*
X014958Y018218D01*
X014912Y018328D01*
X014828Y018413D01*
X014718Y018458D01*
X014598Y018458D01*
X014488Y018413D01*
X014404Y018328D01*
X014358Y018218D01*
X014358Y018099D01*
X014404Y017989D01*
X014488Y017904D01*
X014488Y017693D01*
X014404Y017608D01*
X014358Y017498D01*
X014358Y017379D01*
X014404Y017269D01*
X014488Y017184D01*
X014359Y017376D02*
X014288Y017376D01*
X014288Y017534D02*
X014373Y017534D01*
X014288Y017693D02*
X014488Y017693D01*
X014488Y017851D02*
X014288Y017851D01*
X014288Y018010D02*
X014395Y018010D01*
X014358Y018168D02*
X014288Y018168D01*
X014288Y018327D02*
X014403Y018327D01*
X014288Y018485D02*
X018351Y018485D01*
X018193Y018644D02*
X014288Y018644D01*
X014828Y017851D02*
X015286Y017851D01*
X015258Y018010D02*
X014921Y018010D01*
X014958Y018168D02*
X015323Y018168D01*
X014913Y018327D02*
X015843Y018327D01*
X015798Y018168D02*
X015793Y018168D01*
X015388Y017693D02*
X014828Y017693D01*
X014943Y017534D02*
X015388Y017534D01*
X015388Y017376D02*
X014957Y017376D01*
X014861Y017217D02*
X015388Y017217D01*
X015388Y016741D02*
X014395Y016741D01*
X014554Y016583D02*
X015033Y016583D01*
X014917Y016424D02*
X014712Y016424D01*
X015376Y016424D02*
X015472Y016424D01*
X015472Y016266D02*
X015376Y016266D01*
X015376Y016583D02*
X015453Y016583D01*
X015941Y015949D02*
X016087Y015949D01*
X016246Y015790D02*
X015835Y015790D01*
X015573Y015632D02*
X016404Y015632D01*
X016563Y015473D02*
X015663Y015473D01*
X015318Y012937D02*
X018735Y012937D01*
X018605Y012779D02*
X015277Y012779D01*
X015253Y012620D02*
X015186Y012620D01*
X014948Y012108D02*
X015005Y012051D01*
X014516Y012051D01*
X014434Y011969D01*
X014434Y011637D01*
X014516Y011555D01*
X014608Y011555D01*
X014608Y011520D01*
X014468Y011520D01*
X014436Y011488D01*
X014434Y011491D01*
X014400Y011524D01*
X014359Y011548D01*
X014313Y011560D01*
X014092Y011560D01*
X014092Y011202D01*
X014249Y011202D01*
X014249Y011165D01*
X014092Y011165D01*
X014092Y011202D01*
X014055Y011202D01*
X014055Y011555D01*
X014080Y011555D01*
X014162Y011637D01*
X014162Y011954D01*
X014166Y011958D01*
X014190Y011999D01*
X014202Y012045D01*
X014202Y012177D01*
X013786Y012177D01*
X013370Y012177D01*
X013370Y012045D01*
X013382Y011999D01*
X013406Y011958D01*
X013410Y011954D01*
X013410Y011691D01*
X013318Y011599D01*
X013294Y011623D01*
X013297Y011625D01*
X013330Y011658D01*
X013354Y011699D01*
X013366Y011745D01*
X013366Y011967D01*
X013008Y011967D01*
X013008Y012004D01*
X013366Y012004D01*
X013366Y012225D01*
X013354Y012271D01*
X013330Y012312D01*
X013317Y012326D01*
X013317Y012408D01*
X013410Y012408D01*
X013410Y012400D01*
X013406Y012396D01*
X013382Y012355D01*
X013370Y012309D01*
X013370Y012177D01*
X013786Y012177D01*
X013786Y012177D01*
X013786Y012177D01*
X014202Y012177D01*
X014202Y012309D01*
X014190Y012355D01*
X014166Y012396D01*
X014162Y012400D01*
X014162Y012414D01*
X014468Y012108D01*
X014948Y012108D01*
X014451Y011986D02*
X014183Y011986D01*
X014162Y011828D02*
X014434Y011828D01*
X014434Y011669D02*
X014162Y011669D01*
X014092Y011511D02*
X014055Y011511D01*
X014055Y011352D02*
X014092Y011352D01*
X014055Y011202D02*
X014055Y011165D01*
X014092Y011165D01*
X014092Y010998D01*
X014055Y010998D01*
X014055Y011165D01*
X013677Y011165D01*
X013677Y010998D01*
X013284Y010998D01*
X013326Y011041D01*
X013326Y011148D01*
X013348Y011148D01*
X013755Y011555D01*
X013813Y011555D01*
X013787Y011548D01*
X013746Y011524D01*
X013713Y011491D01*
X013689Y011450D01*
X013677Y011404D01*
X013677Y011202D01*
X014055Y011202D01*
X014055Y011194D02*
X013394Y011194D01*
X013321Y011035D02*
X013677Y011035D01*
X013677Y011352D02*
X013552Y011352D01*
X013711Y011511D02*
X013733Y011511D01*
X013389Y011669D02*
X013337Y011669D01*
X013366Y011828D02*
X013410Y011828D01*
X013390Y011986D02*
X013008Y011986D01*
X013366Y012145D02*
X013370Y012145D01*
X013370Y012303D02*
X013335Y012303D01*
X012771Y013571D02*
X018465Y013571D01*
X018623Y013413D02*
X017908Y013413D01*
X017958Y013254D02*
X018782Y013254D01*
X018868Y013096D02*
X017924Y013096D01*
X017408Y013413D02*
X012613Y013413D01*
X012241Y011035D02*
X011743Y011035D01*
X011365Y016107D02*
X011278Y016107D01*
X012019Y017693D02*
X012439Y017693D01*
X012361Y017851D02*
X011528Y017851D01*
X011528Y018010D02*
X012361Y018010D01*
X012361Y018168D02*
X011528Y018168D01*
X011986Y018327D02*
X012406Y018327D01*
X012568Y018485D02*
X012089Y018485D01*
X012111Y018644D02*
X012683Y018644D01*
X012361Y018802D02*
X012067Y018802D01*
X011922Y018961D02*
X012361Y018961D01*
X012361Y019119D02*
X011528Y019119D01*
X012581Y020704D02*
X012583Y020704D01*
X013728Y020546D02*
X014042Y020546D01*
X013758Y020704D02*
X014383Y020704D01*
X014261Y020863D02*
X013882Y020863D01*
X014041Y021021D02*
X014238Y021021D01*
X014199Y021180D02*
X014315Y021180D01*
X014358Y021338D02*
X014657Y021338D01*
X014516Y021497D02*
X014816Y021497D01*
X014675Y021655D02*
X014974Y021655D01*
X014833Y021814D02*
X015133Y021814D01*
X014992Y021972D02*
X015291Y021972D01*
X015150Y022131D02*
X015450Y022131D01*
X015309Y022289D02*
X015608Y022289D01*
X015467Y022448D02*
X015767Y022448D01*
X015626Y022606D02*
X015925Y022606D01*
X015784Y022765D02*
X016084Y022765D01*
X015943Y022923D02*
X016242Y022923D01*
X016101Y023082D02*
X016401Y023082D01*
X016528Y023240D02*
X016260Y023240D01*
X016418Y023399D02*
X016528Y023399D01*
X016868Y023716D02*
X018109Y023716D01*
X017976Y023874D02*
X017558Y023874D01*
X017655Y024033D02*
X017720Y024033D01*
X017158Y023874D02*
X017014Y023874D01*
X016566Y022606D02*
X016406Y022606D01*
X016247Y022448D02*
X016588Y022448D01*
X016564Y022289D02*
X016172Y022289D01*
X016273Y022131D02*
X016463Y022131D01*
X016469Y021972D02*
X016267Y021972D01*
X016157Y021814D02*
X016579Y021814D01*
X017182Y020863D02*
X017718Y020863D01*
X017658Y020704D02*
X017024Y020704D01*
X016865Y020546D02*
X017688Y020546D01*
X017878Y020387D02*
X016707Y020387D01*
X017341Y021021D02*
X017796Y021021D01*
X017674Y021180D02*
X017499Y021180D01*
X018038Y020387D02*
X018138Y020387D01*
X018450Y022131D02*
X020546Y022131D01*
X020718Y022289D02*
X018609Y022289D01*
X018767Y022448D02*
X020803Y022448D01*
X020125Y023082D02*
X026008Y023082D01*
X026008Y023240D02*
X022800Y023240D01*
X022958Y023399D02*
X026008Y023399D01*
X026008Y023557D02*
X023117Y023557D01*
X023275Y023716D02*
X026008Y023716D01*
X026008Y023874D02*
X023434Y023874D01*
X023592Y024033D02*
X026008Y024033D01*
X026008Y024191D02*
X023751Y024191D01*
X023909Y024350D02*
X026008Y024350D01*
X026008Y024508D02*
X024068Y024508D01*
X024128Y024667D02*
X026008Y024667D01*
X026008Y024825D02*
X024128Y024825D01*
X024128Y024984D02*
X026008Y024984D01*
X026008Y025142D02*
X024128Y025142D01*
X024128Y025301D02*
X026008Y025301D01*
X026008Y025459D02*
X024128Y025459D01*
X024128Y025618D02*
X026008Y025618D01*
X026008Y025776D02*
X024128Y025776D01*
X024128Y025935D02*
X026008Y025935D01*
X026008Y026093D02*
X024128Y026093D01*
X024128Y026252D02*
X026008Y026252D01*
X026008Y026410D02*
X024221Y026410D01*
X024258Y026569D02*
X026008Y026569D01*
X026008Y026727D02*
X024213Y026727D01*
X024165Y026886D02*
X026008Y026886D01*
X026008Y027044D02*
X024324Y027044D01*
X024482Y027203D02*
X026008Y027203D01*
X026008Y027361D02*
X024641Y027361D01*
X024668Y027520D02*
X026008Y027520D01*
X026008Y027678D02*
X024668Y027678D01*
X024668Y027837D02*
X026008Y027837D01*
X026008Y027995D02*
X024668Y027995D01*
X024668Y028154D02*
X026008Y028154D01*
X026008Y028312D02*
X024668Y028312D01*
X024668Y028471D02*
X026008Y028471D01*
X026008Y028629D02*
X024668Y028629D01*
X024668Y028788D02*
X026008Y028788D01*
X026008Y028946D02*
X024668Y028946D01*
X024668Y029105D02*
X026008Y029105D01*
X026008Y029263D02*
X024668Y029263D01*
X024668Y029422D02*
X026008Y029422D01*
X026008Y029580D02*
X024668Y029580D01*
X024668Y029739D02*
X026008Y029739D01*
X026008Y029897D02*
X024668Y029897D01*
X024668Y030056D02*
X026008Y030056D01*
X026008Y030214D02*
X024668Y030214D01*
X024668Y030373D02*
X026008Y030373D01*
X026008Y030531D02*
X024668Y030531D01*
X024668Y030690D02*
X026008Y030690D01*
X026008Y030848D02*
X024668Y030848D01*
X024690Y031007D02*
X026008Y031007D01*
X026008Y031165D02*
X024792Y031165D01*
X024787Y031324D02*
X026008Y031324D01*
X026008Y031482D02*
X024679Y031482D01*
X024780Y031641D02*
X026008Y031641D01*
X026008Y031799D02*
X024939Y031799D01*
X025097Y031958D02*
X026008Y031958D01*
X026008Y032116D02*
X025620Y032116D01*
X025698Y032275D02*
X026008Y032275D01*
X026008Y032433D02*
X025675Y032433D01*
X025551Y032592D02*
X026008Y032592D01*
X026008Y032750D02*
X025890Y032750D01*
X025516Y033037D02*
X025468Y032989D01*
X024403Y031924D01*
X024392Y031948D01*
X024308Y032033D01*
X024198Y032078D01*
X024078Y032078D01*
X023968Y032033D01*
X023884Y031948D01*
X023108Y031948D01*
X023428Y032268D01*
X023528Y032368D01*
X024018Y032858D01*
X024138Y032858D01*
X024248Y032904D01*
X024332Y032989D01*
X024378Y033099D01*
X024378Y033218D01*
X024332Y033328D01*
X024248Y033413D01*
X024138Y033458D01*
X024018Y033458D01*
X023908Y033413D01*
X023824Y033328D01*
X023778Y033218D01*
X023778Y033099D01*
X023358Y032679D01*
X021378Y034659D01*
X021378Y034778D01*
X021332Y034888D01*
X021248Y034973D01*
X021138Y035018D01*
X021018Y035018D01*
X020908Y034973D01*
X020824Y034888D01*
X020778Y034778D01*
X020778Y034659D01*
X020824Y034549D01*
X020908Y034464D01*
X021018Y034418D01*
X021138Y034418D01*
X023118Y032438D01*
X022700Y032021D01*
X022672Y032048D01*
X022712Y032089D01*
X022758Y032199D01*
X022758Y032318D01*
X022712Y032428D01*
X022628Y032513D01*
X022518Y032558D01*
X022398Y032558D01*
X022288Y032513D01*
X022204Y032428D01*
X022158Y032318D01*
X022158Y032199D01*
X022088Y032128D01*
X022028Y032128D01*
X021823Y031924D01*
X021812Y031948D01*
X021742Y032018D01*
X021812Y032089D01*
X021858Y032199D01*
X021858Y032318D01*
X021812Y032428D01*
X021728Y032513D01*
X021618Y032558D01*
X021498Y032558D01*
X021498Y032559D01*
X021498Y032678D01*
X021452Y032788D01*
X021368Y032873D01*
X021258Y032918D01*
X021138Y032918D01*
X021028Y032873D01*
X020944Y032788D01*
X020898Y032678D01*
X020898Y032559D01*
X020408Y032068D01*
X020089Y032068D01*
X020118Y032139D01*
X020118Y032258D01*
X020488Y032628D01*
X020588Y032728D01*
X020588Y037309D01*
X020538Y037359D01*
X020538Y037478D01*
X020492Y037588D01*
X020408Y037673D01*
X020298Y037718D01*
X020178Y037718D01*
X020068Y037673D01*
X019984Y037588D01*
X019938Y037478D01*
X019938Y037359D01*
X019984Y037249D01*
X020068Y037164D01*
X020178Y037118D01*
X020248Y037118D01*
X020248Y035429D01*
X019338Y036339D01*
X019338Y036458D01*
X019292Y036568D01*
X019208Y036653D01*
X019098Y036698D01*
X018978Y036698D01*
X018308Y037369D01*
X018308Y037404D01*
X018392Y037489D01*
X018438Y037599D01*
X018438Y037718D01*
X018392Y037828D01*
X018308Y037913D01*
X018198Y037958D01*
X018188Y037958D01*
X018188Y038488D01*
X018322Y038543D01*
X018469Y038690D01*
X018548Y038881D01*
X018548Y039088D01*
X018469Y039279D01*
X018322Y039425D01*
X018188Y039481D01*
X018188Y039769D01*
X018088Y039868D01*
X016938Y041019D01*
X016938Y041138D01*
X016892Y041248D01*
X016808Y041333D01*
X016698Y041378D01*
X016578Y041378D01*
X016468Y041333D01*
X016384Y041248D01*
X016338Y041138D01*
X016338Y041019D01*
X016384Y040909D01*
X016468Y040824D01*
X016578Y040778D01*
X016698Y040778D01*
X016972Y040504D01*
X016924Y040504D01*
X016733Y040425D01*
X016587Y040279D01*
X016508Y040088D01*
X016508Y039881D01*
X016587Y039690D01*
X016733Y039543D01*
X016888Y039479D01*
X016888Y030369D01*
X016818Y030398D01*
X016698Y030398D01*
X016588Y030353D01*
X016504Y030268D01*
X016458Y030158D01*
X016458Y030039D01*
X016504Y029929D01*
X016588Y029844D01*
X016588Y029128D01*
X016688Y029028D01*
X016828Y028888D01*
X016828Y028569D01*
X016758Y028598D01*
X016638Y028598D01*
X016528Y028553D01*
X016444Y028468D01*
X016398Y028358D01*
X016398Y028239D01*
X016444Y028129D01*
X016528Y028044D01*
X016528Y026569D01*
X016088Y026129D01*
X016088Y035078D01*
X016098Y035078D01*
X016208Y035124D01*
X016292Y035209D01*
X016338Y035319D01*
X016338Y035438D01*
X016292Y035548D01*
X016208Y035633D01*
X016208Y038089D01*
X013887Y040410D01*
X013939Y040431D01*
X014072Y040564D01*
X014143Y040736D01*
X014143Y040923D01*
X014072Y041096D01*
X013939Y041228D01*
X013767Y041300D01*
X013580Y041300D01*
X013407Y041228D01*
X013275Y041096D01*
X013203Y040923D01*
X013203Y040794D01*
X013148Y040849D01*
X013143Y040854D01*
X013143Y040923D01*
X013072Y041096D01*
X012939Y041228D01*
X012776Y041296D01*
X013288Y041808D01*
X021694Y041808D01*
X021627Y041742D01*
X021576Y041618D01*
X021576Y041498D01*
X021558Y041498D01*
X021448Y041453D01*
X021364Y041368D01*
X021318Y041258D01*
X021318Y041139D01*
X021088Y040909D01*
X021088Y038449D01*
X020608Y037969D01*
X020608Y036508D01*
X020708Y036408D01*
X022568Y034548D01*
X024124Y034548D01*
X024208Y034464D01*
X024318Y034418D01*
X024438Y034418D01*
X024548Y034464D01*
X024632Y034549D01*
X024678Y034659D01*
X024678Y034778D01*
X024649Y034848D01*
X024668Y034848D01*
X025588Y033928D01*
X025588Y033473D01*
X025504Y033388D01*
X025458Y033278D01*
X025458Y033159D01*
X025504Y033049D01*
X025516Y033037D01*
X025496Y033067D02*
X024365Y033067D01*
X024375Y033226D02*
X025458Y033226D01*
X025502Y033384D02*
X024277Y033384D01*
X024252Y032909D02*
X025388Y032909D01*
X025229Y032750D02*
X023910Y032750D01*
X023751Y032592D02*
X025071Y032592D01*
X024912Y032433D02*
X023593Y032433D01*
X023434Y032275D02*
X024754Y032275D01*
X024595Y032116D02*
X023276Y032116D01*
X023117Y031958D02*
X023893Y031958D01*
X023429Y032750D02*
X023287Y032750D01*
X023128Y032909D02*
X023588Y032909D01*
X023746Y033067D02*
X022970Y033067D01*
X022811Y033226D02*
X023781Y033226D01*
X023879Y033384D02*
X022653Y033384D01*
X022494Y033543D02*
X025588Y033543D01*
X025588Y033701D02*
X022336Y033701D01*
X022177Y033860D02*
X025588Y033860D01*
X025498Y034018D02*
X022019Y034018D01*
X021860Y034177D02*
X025339Y034177D01*
X025181Y034335D02*
X021702Y034335D01*
X021543Y034494D02*
X024179Y034494D01*
X024577Y034494D02*
X025022Y034494D01*
X024864Y034652D02*
X024675Y034652D01*
X024665Y034811D02*
X024705Y034811D01*
X023112Y032433D02*
X022708Y032433D01*
X022758Y032275D02*
X022954Y032275D01*
X022795Y032116D02*
X022724Y032116D01*
X022964Y032592D02*
X021498Y032592D01*
X021468Y032750D02*
X022806Y032750D01*
X022647Y032909D02*
X021282Y032909D01*
X021114Y032909D02*
X020588Y032909D01*
X020588Y033067D02*
X022489Y033067D01*
X022330Y033226D02*
X020588Y033226D01*
X020588Y033384D02*
X022172Y033384D01*
X022013Y033543D02*
X020588Y033543D01*
X020588Y033701D02*
X021855Y033701D01*
X021696Y033860D02*
X020588Y033860D01*
X020588Y034018D02*
X021538Y034018D01*
X021379Y034177D02*
X020588Y034177D01*
X020588Y034335D02*
X021221Y034335D01*
X021385Y034652D02*
X022464Y034652D01*
X022305Y034811D02*
X021365Y034811D01*
X021252Y034969D02*
X022147Y034969D01*
X021988Y035128D02*
X020588Y035128D01*
X020588Y035286D02*
X021830Y035286D01*
X021671Y035445D02*
X020588Y035445D01*
X020588Y035603D02*
X021513Y035603D01*
X021354Y035762D02*
X020588Y035762D01*
X020588Y035920D02*
X021196Y035920D01*
X021037Y036079D02*
X020588Y036079D01*
X020588Y036237D02*
X020879Y036237D01*
X020720Y036396D02*
X020588Y036396D01*
X020588Y036554D02*
X020608Y036554D01*
X020608Y036713D02*
X020588Y036713D01*
X020588Y036871D02*
X020608Y036871D01*
X020608Y037030D02*
X020588Y037030D01*
X020588Y037188D02*
X020608Y037188D01*
X020608Y037347D02*
X020550Y037347D01*
X020527Y037505D02*
X020608Y037505D01*
X020608Y037664D02*
X020417Y037664D01*
X020608Y037822D02*
X018395Y037822D01*
X018438Y037664D02*
X020059Y037664D01*
X019949Y037505D02*
X018399Y037505D01*
X018330Y037347D02*
X019943Y037347D01*
X020044Y037188D02*
X018489Y037188D01*
X018647Y037030D02*
X020248Y037030D01*
X020248Y036871D02*
X018806Y036871D01*
X018964Y036713D02*
X020248Y036713D01*
X020248Y036554D02*
X019298Y036554D01*
X019338Y036396D02*
X020248Y036396D01*
X020248Y036237D02*
X019440Y036237D01*
X019598Y036079D02*
X020248Y036079D01*
X020248Y035920D02*
X019757Y035920D01*
X019915Y035762D02*
X020248Y035762D01*
X020248Y035603D02*
X020074Y035603D01*
X020232Y035445D02*
X020248Y035445D01*
X020588Y034969D02*
X020904Y034969D01*
X020791Y034811D02*
X020588Y034811D01*
X020588Y034652D02*
X020781Y034652D01*
X020879Y034494D02*
X020588Y034494D01*
X020588Y032750D02*
X020928Y032750D01*
X020898Y032592D02*
X020451Y032592D01*
X020293Y032433D02*
X020772Y032433D01*
X020614Y032275D02*
X020134Y032275D01*
X020108Y032116D02*
X020455Y032116D01*
X021803Y031958D02*
X021857Y031958D01*
X021824Y032116D02*
X022015Y032116D01*
X022158Y032275D02*
X021858Y032275D01*
X021808Y032433D02*
X022208Y032433D01*
X024383Y031958D02*
X024437Y031958D01*
X021507Y037188D02*
X021148Y037188D01*
X021068Y037108D02*
X021068Y036969D01*
X021138Y036998D01*
X021258Y036998D01*
X021300Y036981D01*
X022913Y038594D01*
X022888Y038604D01*
X022804Y038689D01*
X022758Y038799D01*
X022758Y038918D01*
X022801Y039023D01*
X022776Y039008D01*
X022731Y038996D01*
X022648Y038996D01*
X022648Y039116D01*
X022648Y039116D01*
X022648Y038996D01*
X022565Y038996D01*
X022519Y039008D01*
X022478Y039032D01*
X022445Y039066D01*
X022421Y039107D01*
X022409Y039153D01*
X022409Y039334D01*
X022646Y039334D01*
X022646Y039334D01*
X022409Y039334D01*
X022409Y039409D01*
X022408Y039408D01*
X022382Y039408D01*
X022358Y039396D01*
X022314Y039408D01*
X022137Y039408D01*
X022112Y039349D01*
X022028Y039264D01*
X021918Y039218D01*
X021798Y039218D01*
X021688Y039264D01*
X021604Y039349D01*
X021558Y039459D01*
X021558Y039518D01*
X021548Y039508D01*
X021548Y037588D01*
X021068Y037108D01*
X021068Y037030D02*
X021349Y037030D01*
X021306Y037347D02*
X021666Y037347D01*
X021824Y037505D02*
X021465Y037505D01*
X021548Y037664D02*
X021983Y037664D01*
X022141Y037822D02*
X021548Y037822D01*
X021548Y037981D02*
X022300Y037981D01*
X022458Y038139D02*
X021548Y038139D01*
X021548Y038298D02*
X022617Y038298D01*
X022775Y038456D02*
X021548Y038456D01*
X021548Y038615D02*
X022878Y038615D01*
X022769Y038773D02*
X021548Y038773D01*
X021548Y038932D02*
X022763Y038932D01*
X022648Y039090D02*
X022648Y039090D01*
X022431Y039090D02*
X021548Y039090D01*
X021548Y039249D02*
X021726Y039249D01*
X021579Y039407D02*
X021548Y039407D01*
X021918Y040168D02*
X021918Y040238D01*
X021872Y040348D01*
X021860Y040360D01*
X022348Y040848D01*
X022628Y040848D01*
X022664Y040812D01*
X022531Y040812D01*
X022449Y040730D01*
X022449Y040454D01*
X022353Y040454D01*
X022353Y040222D01*
X022353Y040222D01*
X022353Y040454D01*
X022171Y040454D01*
X022126Y040442D01*
X022085Y040418D01*
X022051Y040384D01*
X022027Y040343D01*
X022015Y040297D01*
X022015Y040215D01*
X022130Y040215D01*
X022130Y040215D01*
X022015Y040215D01*
X022015Y040168D01*
X021918Y040168D01*
X021918Y040200D02*
X022015Y040200D01*
X022036Y040358D02*
X021863Y040358D01*
X022016Y040517D02*
X022449Y040517D01*
X022449Y040675D02*
X022175Y040675D01*
X022333Y040834D02*
X022642Y040834D01*
X022984Y041213D02*
X023106Y041264D01*
X023136Y041294D01*
X023173Y041257D01*
X023235Y041215D01*
X023304Y041187D01*
X023377Y041172D01*
X023414Y041172D01*
X023414Y041551D01*
X023414Y041551D01*
X023414Y041172D01*
X023452Y041172D01*
X023525Y041187D01*
X023593Y041215D01*
X023655Y041257D01*
X023693Y041294D01*
X023723Y041264D01*
X023847Y041212D01*
X023982Y041212D01*
X024106Y041264D01*
X024136Y041294D01*
X024173Y041257D01*
X024235Y041215D01*
X024304Y041187D01*
X024377Y041172D01*
X024414Y041172D01*
X024414Y041551D01*
X024414Y041551D01*
X024414Y041172D01*
X024452Y041172D01*
X024525Y041187D01*
X024593Y041215D01*
X024655Y041257D01*
X024693Y041294D01*
X024723Y041264D01*
X024847Y041212D01*
X024982Y041212D01*
X025106Y041264D01*
X025164Y041322D01*
X025223Y041264D01*
X025308Y041228D01*
X024438Y040359D01*
X024438Y040478D01*
X024392Y040588D01*
X024308Y040673D01*
X024198Y040718D01*
X024078Y040718D01*
X023968Y040673D01*
X023884Y040588D01*
X023838Y040478D01*
X023838Y040408D01*
X023759Y040408D01*
X023749Y040419D01*
X023511Y040419D01*
X023506Y040420D01*
X023504Y040419D01*
X023438Y040419D01*
X023438Y040495D01*
X023478Y040478D01*
X023598Y040478D01*
X023708Y040524D01*
X023792Y040609D01*
X023838Y040719D01*
X023838Y040838D01*
X023792Y040948D01*
X023708Y041033D01*
X023598Y041078D01*
X023478Y041078D01*
X023368Y041033D01*
X023284Y040948D01*
X023248Y040948D01*
X022984Y041213D01*
X023046Y041151D02*
X025230Y041151D01*
X025177Y041309D02*
X025151Y041309D01*
X025071Y040992D02*
X023749Y040992D01*
X023838Y040834D02*
X024913Y040834D01*
X024754Y040675D02*
X024303Y040675D01*
X024422Y040517D02*
X024596Y040517D01*
X024414Y041309D02*
X024414Y041309D01*
X024414Y041468D02*
X024414Y041468D01*
X023973Y040675D02*
X023820Y040675D01*
X023854Y040517D02*
X023689Y040517D01*
X023414Y041309D02*
X023414Y041309D01*
X023414Y041468D02*
X023414Y041468D01*
X023327Y040992D02*
X023205Y040992D01*
X022353Y040358D02*
X022353Y040358D01*
X022379Y039407D02*
X022409Y039407D01*
X022319Y039407D02*
X022136Y039407D01*
X021990Y039249D02*
X022409Y039249D01*
X021171Y040992D02*
X018548Y040992D01*
X018548Y041088D02*
X018469Y041279D01*
X018322Y041425D01*
X018131Y041504D01*
X017924Y041504D01*
X017733Y041425D01*
X017587Y041279D01*
X017508Y041088D01*
X017508Y040881D01*
X017587Y040690D01*
X017733Y040543D01*
X017924Y040464D01*
X018131Y040464D01*
X018322Y040543D01*
X018469Y040690D01*
X018548Y040881D01*
X018548Y041088D01*
X018522Y041151D02*
X021318Y041151D01*
X021339Y041309D02*
X018438Y041309D01*
X018220Y041468D02*
X021484Y041468D01*
X021579Y041626D02*
X013106Y041626D01*
X013264Y041785D02*
X021670Y041785D01*
X021088Y040834D02*
X018528Y040834D01*
X018454Y040675D02*
X021088Y040675D01*
X021088Y040517D02*
X019202Y040517D01*
X019243Y040503D02*
X019159Y040530D01*
X019072Y040544D01*
X019056Y040544D01*
X019056Y040013D01*
X019000Y040013D01*
X019000Y040544D01*
X018984Y040544D01*
X018897Y040530D01*
X018813Y040503D01*
X018734Y040463D01*
X018663Y040411D01*
X018601Y040349D01*
X018549Y040278D01*
X018509Y040199D01*
X018482Y040115D01*
X018468Y040028D01*
X018468Y040013D01*
X019000Y040013D01*
X019000Y039956D01*
X019056Y039956D01*
X019056Y039424D01*
X019072Y039424D01*
X019159Y039438D01*
X019243Y039465D01*
X019321Y039505D01*
X019393Y039557D01*
X019455Y039619D01*
X019507Y039691D01*
X019547Y039769D01*
X019574Y039853D01*
X019588Y039940D01*
X019588Y039956D01*
X019056Y039956D01*
X019056Y040013D01*
X019588Y040013D01*
X019588Y040028D01*
X019574Y040115D01*
X019547Y040199D01*
X019507Y040278D01*
X019455Y040349D01*
X019393Y040411D01*
X019321Y040463D01*
X019243Y040503D01*
X019056Y040517D02*
X019000Y040517D01*
X018854Y040517D02*
X018258Y040517D01*
X018610Y040358D02*
X017599Y040358D01*
X017757Y040200D02*
X018509Y040200D01*
X018470Y040041D02*
X017916Y040041D01*
X018074Y039883D02*
X018477Y039883D01*
X018482Y039853D02*
X018509Y039769D01*
X018549Y039691D01*
X018601Y039619D01*
X018663Y039557D01*
X018734Y039505D01*
X018813Y039465D01*
X018897Y039438D01*
X018984Y039424D01*
X019000Y039424D01*
X019000Y039956D01*
X018468Y039956D01*
X018468Y039940D01*
X018482Y039853D01*
X018532Y039724D02*
X018188Y039724D01*
X018188Y039566D02*
X018655Y039566D01*
X018340Y039407D02*
X021088Y039407D01*
X021088Y039249D02*
X018481Y039249D01*
X018547Y039090D02*
X021088Y039090D01*
X021088Y038932D02*
X018548Y038932D01*
X018503Y038773D02*
X021088Y038773D01*
X021088Y038615D02*
X018394Y038615D01*
X018188Y038456D02*
X021088Y038456D01*
X020937Y038298D02*
X018188Y038298D01*
X018188Y038139D02*
X020778Y038139D01*
X020620Y037981D02*
X018188Y037981D01*
X019000Y039566D02*
X019056Y039566D01*
X019056Y039724D02*
X019000Y039724D01*
X019000Y039883D02*
X019056Y039883D01*
X019056Y040041D02*
X019000Y040041D01*
X019000Y040200D02*
X019056Y040200D01*
X019056Y040358D02*
X019000Y040358D01*
X019446Y040358D02*
X021088Y040358D01*
X021088Y040200D02*
X019547Y040200D01*
X019586Y040041D02*
X021088Y040041D01*
X021088Y039883D02*
X019579Y039883D01*
X019524Y039724D02*
X021088Y039724D01*
X021088Y039566D02*
X019401Y039566D01*
X017798Y040517D02*
X017440Y040517D01*
X017282Y040675D02*
X017602Y040675D01*
X017527Y040834D02*
X017123Y040834D01*
X016965Y040992D02*
X017508Y040992D01*
X017534Y041151D02*
X016933Y041151D01*
X016832Y041309D02*
X017617Y041309D01*
X017836Y041468D02*
X012947Y041468D01*
X012789Y041309D02*
X016444Y041309D01*
X016343Y041151D02*
X014017Y041151D01*
X014115Y040992D02*
X016349Y040992D01*
X016459Y040834D02*
X014143Y040834D01*
X014118Y040675D02*
X016801Y040675D01*
X016959Y040517D02*
X014025Y040517D01*
X013939Y040358D02*
X016666Y040358D01*
X016554Y040200D02*
X014097Y040200D01*
X014256Y040041D02*
X016508Y040041D01*
X016508Y039883D02*
X014414Y039883D01*
X014573Y039724D02*
X016573Y039724D01*
X016711Y039566D02*
X014731Y039566D01*
X014890Y039407D02*
X016888Y039407D01*
X016888Y039249D02*
X015048Y039249D01*
X015207Y039090D02*
X016888Y039090D01*
X016888Y038932D02*
X015365Y038932D01*
X015524Y038773D02*
X016888Y038773D01*
X016888Y038615D02*
X015682Y038615D01*
X015841Y038456D02*
X016888Y038456D01*
X016888Y038298D02*
X015999Y038298D01*
X016158Y038139D02*
X016888Y038139D01*
X016888Y037981D02*
X016208Y037981D01*
X016208Y037822D02*
X016888Y037822D01*
X016888Y037664D02*
X016208Y037664D01*
X016208Y037505D02*
X016888Y037505D01*
X016888Y037347D02*
X016208Y037347D01*
X016208Y037188D02*
X016888Y037188D01*
X016888Y037030D02*
X016208Y037030D01*
X016208Y036871D02*
X016888Y036871D01*
X016888Y036713D02*
X016208Y036713D01*
X016208Y036554D02*
X016888Y036554D01*
X016888Y036396D02*
X016208Y036396D01*
X016208Y036237D02*
X016888Y036237D01*
X016888Y036079D02*
X016208Y036079D01*
X016208Y035920D02*
X016888Y035920D01*
X016888Y035762D02*
X016208Y035762D01*
X016238Y035603D02*
X016888Y035603D01*
X016888Y035445D02*
X016335Y035445D01*
X016324Y035286D02*
X016888Y035286D01*
X016888Y035128D02*
X016211Y035128D01*
X016088Y034969D02*
X016888Y034969D01*
X016888Y034811D02*
X016088Y034811D01*
X016088Y034652D02*
X016888Y034652D01*
X016888Y034494D02*
X016088Y034494D01*
X016088Y034335D02*
X016888Y034335D01*
X016888Y034177D02*
X016088Y034177D01*
X016088Y034018D02*
X016888Y034018D01*
X016888Y033860D02*
X016088Y033860D01*
X016088Y033701D02*
X016888Y033701D01*
X016888Y033543D02*
X016088Y033543D01*
X016088Y033384D02*
X016888Y033384D01*
X016888Y033226D02*
X016088Y033226D01*
X016088Y033067D02*
X016888Y033067D01*
X016888Y032909D02*
X016088Y032909D01*
X016088Y032750D02*
X016888Y032750D01*
X016888Y032592D02*
X016088Y032592D01*
X016088Y032433D02*
X016888Y032433D01*
X016888Y032275D02*
X016088Y032275D01*
X016088Y032116D02*
X016888Y032116D01*
X016888Y031958D02*
X016088Y031958D01*
X016088Y031799D02*
X016888Y031799D01*
X016888Y031641D02*
X016088Y031641D01*
X016088Y031482D02*
X016888Y031482D01*
X016888Y031324D02*
X016088Y031324D01*
X016088Y031165D02*
X016888Y031165D01*
X016888Y031007D02*
X016088Y031007D01*
X016088Y030848D02*
X016888Y030848D01*
X016888Y030690D02*
X016088Y030690D01*
X016088Y030531D02*
X016888Y030531D01*
X016880Y030373D02*
X016888Y030373D01*
X016636Y030373D02*
X016088Y030373D01*
X016088Y030214D02*
X016481Y030214D01*
X016458Y030056D02*
X016088Y030056D01*
X016088Y029897D02*
X016535Y029897D01*
X016588Y029739D02*
X016088Y029739D01*
X016088Y029580D02*
X016588Y029580D01*
X016588Y029422D02*
X016088Y029422D01*
X016088Y029263D02*
X016588Y029263D01*
X016611Y029105D02*
X016088Y029105D01*
X016088Y028946D02*
X016770Y028946D01*
X016828Y028788D02*
X016088Y028788D01*
X016088Y028629D02*
X016828Y028629D01*
X016528Y027995D02*
X016088Y027995D01*
X016088Y027837D02*
X016528Y027837D01*
X016528Y027678D02*
X016088Y027678D01*
X016088Y027520D02*
X016528Y027520D01*
X016528Y027361D02*
X016088Y027361D01*
X016088Y027203D02*
X016528Y027203D01*
X016528Y027044D02*
X016088Y027044D01*
X016088Y026886D02*
X016528Y026886D01*
X016528Y026727D02*
X016088Y026727D01*
X016088Y026569D02*
X016528Y026569D01*
X016369Y026410D02*
X016088Y026410D01*
X016088Y026252D02*
X016211Y026252D01*
X016088Y028154D02*
X016433Y028154D01*
X016398Y028312D02*
X016088Y028312D01*
X016088Y028471D02*
X016446Y028471D01*
X014428Y028471D02*
X014070Y028471D01*
X014048Y028493D02*
X013938Y028538D01*
X013818Y028538D01*
X013708Y028493D01*
X013624Y028408D01*
X013578Y028298D01*
X013578Y028179D01*
X013624Y028069D01*
X013708Y027984D01*
X013708Y027789D01*
X013638Y027818D01*
X013518Y027818D01*
X013408Y027773D01*
X013324Y027688D01*
X013278Y027578D01*
X013278Y027459D01*
X013324Y027349D01*
X013408Y027264D01*
X013408Y026809D01*
X011278Y024679D01*
X011278Y036418D01*
X012858Y034838D01*
X012858Y034719D01*
X012904Y034609D01*
X012988Y034524D01*
X013098Y034478D01*
X013218Y034478D01*
X013328Y034524D01*
X013412Y034609D01*
X013458Y034719D01*
X013458Y034838D01*
X013412Y034948D01*
X013402Y034958D01*
X013472Y035028D01*
X013564Y035028D01*
X013648Y034944D01*
X013758Y034898D01*
X013878Y034898D01*
X013988Y034944D01*
X014058Y035014D01*
X014128Y034944D01*
X014238Y034898D01*
X014358Y034898D01*
X014428Y034928D01*
X014428Y027813D01*
X014348Y027893D01*
X014238Y027938D01*
X014118Y027938D01*
X014048Y027909D01*
X014048Y027984D01*
X014132Y028069D01*
X014178Y028179D01*
X014178Y028298D01*
X014132Y028408D01*
X014048Y028493D01*
X014172Y028312D02*
X014428Y028312D01*
X014428Y028154D02*
X014167Y028154D01*
X014059Y027995D02*
X014428Y027995D01*
X014428Y027837D02*
X014404Y027837D01*
X014428Y028629D02*
X011278Y028629D01*
X011278Y028471D02*
X013686Y028471D01*
X013584Y028312D02*
X011278Y028312D01*
X011278Y028154D02*
X013588Y028154D01*
X013697Y027995D02*
X011278Y027995D01*
X011278Y027837D02*
X013708Y027837D01*
X013319Y027678D02*
X011278Y027678D01*
X011278Y027520D02*
X013278Y027520D01*
X013318Y027361D02*
X011278Y027361D01*
X011278Y027203D02*
X013408Y027203D01*
X013408Y027044D02*
X011278Y027044D01*
X011278Y026886D02*
X013408Y026886D01*
X013326Y026727D02*
X011278Y026727D01*
X011278Y026569D02*
X013168Y026569D01*
X013009Y026410D02*
X011278Y026410D01*
X011278Y026252D02*
X012851Y026252D01*
X012692Y026093D02*
X011278Y026093D01*
X011278Y025935D02*
X012534Y025935D01*
X012375Y025776D02*
X011278Y025776D01*
X011278Y025618D02*
X012217Y025618D01*
X012058Y025459D02*
X011278Y025459D01*
X011278Y025301D02*
X011900Y025301D01*
X011741Y025142D02*
X011278Y025142D01*
X011278Y024984D02*
X011583Y024984D01*
X011424Y024825D02*
X011278Y024825D01*
X011278Y028788D02*
X014428Y028788D01*
X014428Y028946D02*
X011278Y028946D01*
X011278Y029105D02*
X014428Y029105D01*
X014428Y029263D02*
X011278Y029263D01*
X011278Y029422D02*
X014428Y029422D01*
X014428Y029580D02*
X011278Y029580D01*
X011278Y029739D02*
X014428Y029739D01*
X014428Y029897D02*
X011278Y029897D01*
X011278Y030056D02*
X014428Y030056D01*
X014428Y030214D02*
X011278Y030214D01*
X011278Y030373D02*
X014428Y030373D01*
X014428Y030531D02*
X011278Y030531D01*
X011278Y030690D02*
X014428Y030690D01*
X014428Y030848D02*
X011278Y030848D01*
X011278Y031007D02*
X014428Y031007D01*
X014428Y031165D02*
X011278Y031165D01*
X011278Y031324D02*
X014428Y031324D01*
X014428Y031482D02*
X011278Y031482D01*
X011278Y031641D02*
X014428Y031641D01*
X014428Y031799D02*
X011278Y031799D01*
X011278Y031958D02*
X014428Y031958D01*
X014428Y032116D02*
X011278Y032116D01*
X011278Y032275D02*
X014428Y032275D01*
X014428Y032433D02*
X011278Y032433D01*
X011278Y032592D02*
X014428Y032592D01*
X014428Y032750D02*
X011278Y032750D01*
X011278Y032909D02*
X014428Y032909D01*
X014428Y033067D02*
X011278Y033067D01*
X011278Y033226D02*
X014428Y033226D01*
X014428Y033384D02*
X011278Y033384D01*
X011278Y033543D02*
X014428Y033543D01*
X014428Y033701D02*
X011278Y033701D01*
X011278Y033860D02*
X014428Y033860D01*
X014428Y034018D02*
X011278Y034018D01*
X011278Y034177D02*
X014428Y034177D01*
X014428Y034335D02*
X011278Y034335D01*
X011278Y034494D02*
X013062Y034494D01*
X013254Y034494D02*
X014428Y034494D01*
X014428Y034652D02*
X013430Y034652D01*
X013458Y034811D02*
X014428Y034811D01*
X014103Y034969D02*
X014013Y034969D01*
X013623Y034969D02*
X013413Y034969D01*
X013472Y035368D02*
X013388Y035453D01*
X013278Y035498D01*
X013158Y035498D01*
X013048Y035453D01*
X012964Y035368D01*
X012918Y035259D01*
X011528Y036649D01*
X011528Y037044D01*
X011612Y037129D01*
X011658Y037239D01*
X011658Y037358D01*
X011612Y037468D01*
X011528Y037553D01*
X011418Y037598D01*
X011298Y037598D01*
X011278Y037590D01*
X011278Y041191D01*
X011287Y041308D01*
X011359Y041529D01*
X011496Y041717D01*
X011684Y041854D01*
X011905Y041925D01*
X012021Y041935D01*
X012934Y041935D01*
X012028Y041029D01*
X012028Y040888D01*
X012028Y040588D01*
X012128Y040488D01*
X012428Y040188D01*
X013148Y040188D01*
X013186Y040150D01*
X013173Y040150D01*
X013127Y040138D01*
X013086Y040114D01*
X013052Y040081D01*
X013051Y040078D01*
X013018Y040110D01*
X012626Y040110D01*
X012544Y040028D01*
X012544Y039745D01*
X012498Y039698D01*
X012378Y039698D01*
X012268Y039653D01*
X012184Y039568D01*
X012138Y039458D01*
X012138Y039339D01*
X012184Y039229D01*
X012268Y039144D01*
X012378Y039098D01*
X012498Y039098D01*
X012539Y039116D01*
X012539Y039096D01*
X012479Y039096D01*
X012397Y039014D01*
X012397Y038549D01*
X012395Y038547D01*
X012395Y038077D01*
X012460Y038012D01*
X012438Y037958D01*
X012438Y037839D01*
X012484Y037729D01*
X012568Y037644D01*
X012678Y037598D01*
X012798Y037598D01*
X012908Y037644D01*
X012992Y037729D01*
X013038Y037839D01*
X013038Y037955D01*
X013185Y037955D01*
X013185Y038312D01*
X013185Y038312D01*
X013185Y037955D01*
X013347Y037955D01*
X013348Y037955D01*
X013348Y036389D01*
X012318Y037419D01*
X012318Y037538D01*
X012272Y037648D01*
X012188Y037733D01*
X012078Y037778D01*
X011958Y037778D01*
X011848Y037733D01*
X011764Y037648D01*
X011718Y037538D01*
X011718Y037419D01*
X011764Y037309D01*
X011848Y037224D01*
X011958Y037178D01*
X012078Y037178D01*
X013758Y035498D01*
X013648Y035453D01*
X013564Y035368D01*
X013472Y035368D01*
X013396Y035445D02*
X013640Y035445D01*
X013653Y035603D02*
X012574Y035603D01*
X012732Y035445D02*
X013040Y035445D01*
X012929Y035286D02*
X012891Y035286D01*
X012727Y034969D02*
X011278Y034969D01*
X011278Y034811D02*
X012858Y034811D01*
X012886Y034652D02*
X011278Y034652D01*
X011278Y035128D02*
X012568Y035128D01*
X012410Y035286D02*
X011278Y035286D01*
X011278Y035445D02*
X012251Y035445D01*
X012093Y035603D02*
X011278Y035603D01*
X011278Y035762D02*
X011934Y035762D01*
X011776Y035920D02*
X011278Y035920D01*
X011278Y036079D02*
X011617Y036079D01*
X011459Y036237D02*
X011278Y036237D01*
X011278Y036396D02*
X011300Y036396D01*
X011623Y036554D02*
X012702Y036554D01*
X012860Y036396D02*
X011781Y036396D01*
X011940Y036237D02*
X013019Y036237D01*
X013177Y036079D02*
X012098Y036079D01*
X012257Y035920D02*
X013336Y035920D01*
X013494Y035762D02*
X012415Y035762D01*
X012543Y036713D02*
X011528Y036713D01*
X011528Y036871D02*
X012385Y036871D01*
X012226Y037030D02*
X011528Y037030D01*
X011637Y037188D02*
X011935Y037188D01*
X011748Y037347D02*
X011658Y037347D01*
X011718Y037505D02*
X011576Y037505D01*
X011779Y037664D02*
X011278Y037664D01*
X011278Y037822D02*
X012445Y037822D01*
X012447Y037981D02*
X011278Y037981D01*
X011278Y038139D02*
X012395Y038139D01*
X012395Y038298D02*
X011278Y038298D01*
X011278Y038456D02*
X012395Y038456D01*
X012397Y038615D02*
X011278Y038615D01*
X011278Y038773D02*
X012397Y038773D01*
X012397Y038932D02*
X011278Y038932D01*
X011278Y039090D02*
X012473Y039090D01*
X012175Y039249D02*
X011278Y039249D01*
X011278Y039407D02*
X012138Y039407D01*
X012182Y039566D02*
X011278Y039566D01*
X011278Y039724D02*
X012523Y039724D01*
X012544Y039883D02*
X011278Y039883D01*
X011278Y040041D02*
X012557Y040041D01*
X012416Y040200D02*
X011278Y040200D01*
X011278Y040358D02*
X012258Y040358D01*
X012099Y040517D02*
X011278Y040517D01*
X011278Y040675D02*
X012028Y040675D01*
X012028Y040834D02*
X011278Y040834D01*
X011278Y040992D02*
X012028Y040992D01*
X012150Y041151D02*
X011278Y041151D01*
X011288Y041309D02*
X012308Y041309D01*
X012467Y041468D02*
X011339Y041468D01*
X011430Y041626D02*
X012625Y041626D01*
X012784Y041785D02*
X011589Y041785D01*
X013017Y041151D02*
X013329Y041151D01*
X013232Y040992D02*
X013115Y040992D01*
X013163Y040834D02*
X013203Y040834D01*
X013652Y039684D02*
X014488Y038848D01*
X014488Y038693D01*
X014416Y038621D01*
X014288Y038749D01*
X014188Y038848D01*
X013928Y038848D01*
X013503Y038424D01*
X013503Y038513D01*
X013495Y038542D01*
X013505Y038578D01*
X013505Y038779D01*
X013505Y038937D01*
X013536Y038946D01*
X013577Y038969D01*
X013610Y039003D01*
X013634Y039044D01*
X013646Y039090D01*
X014246Y039090D01*
X014404Y038932D02*
X013505Y038932D01*
X013505Y038779D02*
X013187Y038779D01*
X013187Y038779D01*
X013505Y038779D01*
X013505Y038773D02*
X013852Y038773D01*
X013694Y038615D02*
X013505Y038615D01*
X013503Y038456D02*
X013535Y038456D01*
X013646Y039090D02*
X013646Y039291D01*
X013646Y039491D01*
X013634Y039537D01*
X013640Y039547D01*
X013652Y039592D01*
X013652Y039684D01*
X013645Y039566D02*
X013770Y039566D01*
X013646Y039407D02*
X013929Y039407D01*
X014087Y039249D02*
X013646Y039249D01*
X013646Y039291D02*
X013328Y039291D01*
X013646Y039291D01*
X013328Y039291D02*
X013328Y039291D01*
X013185Y038298D02*
X013185Y038298D01*
X013185Y038139D02*
X013185Y038139D01*
X013185Y037981D02*
X013185Y037981D01*
X013031Y037822D02*
X013348Y037822D01*
X013348Y037664D02*
X012927Y037664D01*
X013348Y037505D02*
X012318Y037505D01*
X012257Y037664D02*
X012549Y037664D01*
X012390Y037347D02*
X013348Y037347D01*
X013348Y037188D02*
X012549Y037188D01*
X012707Y037030D02*
X013348Y037030D01*
X013348Y036871D02*
X012866Y036871D01*
X013024Y036713D02*
X013348Y036713D01*
X013348Y036554D02*
X013183Y036554D01*
X013341Y036396D02*
X013348Y036396D01*
X014264Y038773D02*
X014488Y038773D01*
X019186Y024667D02*
X019230Y024667D01*
X019222Y024508D02*
X019028Y024508D01*
X018869Y024350D02*
X019285Y024350D01*
X019218Y024191D02*
X018711Y024191D01*
X018558Y024033D02*
X019245Y024033D01*
X018545Y016741D02*
X017534Y016741D01*
X017757Y016583D02*
X018590Y016583D01*
X018698Y016424D02*
X017858Y016424D01*
X017910Y016266D02*
X020228Y016266D01*
X020228Y016107D02*
X017910Y016107D01*
X017866Y015949D02*
X020272Y015949D01*
X020361Y015790D02*
X017778Y015790D01*
X017584Y015632D02*
X020555Y015632D01*
X020281Y016424D02*
X019440Y016424D01*
X018153Y014364D02*
X023389Y014364D01*
X023389Y014379D02*
X023389Y014098D01*
X023401Y014052D01*
X023425Y014011D01*
X023459Y013978D01*
X023500Y013954D01*
X023545Y013942D01*
X023787Y013942D01*
X023787Y014379D01*
X023389Y014379D01*
X023389Y014494D02*
X023389Y014775D01*
X023401Y014821D01*
X023425Y014862D01*
X023459Y014896D01*
X023500Y014919D01*
X023545Y014932D01*
X023787Y014932D01*
X023787Y014494D01*
X023787Y014379D01*
X023903Y014379D01*
X023903Y014494D01*
X024300Y014494D01*
X024300Y014775D01*
X024288Y014821D01*
X024264Y014862D01*
X024231Y014896D01*
X024190Y014919D01*
X024144Y014932D01*
X023903Y014932D01*
X023903Y014494D01*
X023787Y014494D01*
X023389Y014494D01*
X023389Y014522D02*
X017994Y014522D01*
X017836Y014681D02*
X023389Y014681D01*
X023412Y014839D02*
X017677Y014839D01*
X018311Y014205D02*
X023389Y014205D01*
X023404Y014047D02*
X018470Y014047D01*
X018628Y013888D02*
X024188Y013888D01*
X024190Y013954D02*
X024231Y013978D01*
X024264Y014011D01*
X024288Y014052D01*
X024300Y014098D01*
X024300Y014379D01*
X023903Y014379D01*
X023903Y013942D01*
X024144Y013942D01*
X024190Y013954D01*
X024285Y014047D02*
X024346Y014047D01*
X024300Y014205D02*
X024505Y014205D01*
X024532Y014364D02*
X024300Y014364D01*
X024300Y014522D02*
X024532Y014522D01*
X024532Y014681D02*
X024300Y014681D01*
X024277Y014839D02*
X024561Y014839D01*
X025066Y015790D02*
X023070Y015790D01*
X023188Y015949D02*
X024907Y015949D01*
X024749Y016107D02*
X023239Y016107D01*
X023239Y016266D02*
X024590Y016266D01*
X024432Y016424D02*
X023179Y016424D01*
X023787Y014839D02*
X023903Y014839D01*
X023903Y014681D02*
X023787Y014681D01*
X023787Y014522D02*
X023903Y014522D01*
X023903Y014364D02*
X023787Y014364D01*
X023787Y014205D02*
X023903Y014205D01*
X023903Y014047D02*
X023787Y014047D01*
X023711Y013730D02*
X024029Y013730D01*
X023644Y013254D02*
X023576Y013254D01*
X023380Y013254D02*
X019208Y013254D01*
X019208Y013096D02*
X022733Y013096D01*
X022733Y012937D02*
X019403Y012937D01*
X019533Y012779D02*
X022733Y012779D01*
X022693Y012620D02*
X019593Y012620D01*
X019593Y012462D02*
X022693Y012462D01*
X022693Y012303D02*
X019542Y012303D01*
X019424Y012145D02*
X022833Y012145D01*
X023050Y012145D02*
X023050Y012145D01*
X023050Y012303D02*
X023050Y012303D01*
X023267Y012145D02*
X023592Y012145D01*
X023591Y011986D02*
X016088Y011986D01*
X016088Y011828D02*
X023594Y011828D01*
X023908Y011669D02*
X016029Y011669D01*
X015871Y011511D02*
X023837Y011511D01*
X023837Y011352D02*
X015099Y011352D01*
X015099Y011194D02*
X023837Y011194D01*
X023837Y011347D02*
X024155Y011347D01*
X024155Y011347D01*
X023837Y011347D01*
X023897Y011035D02*
X015099Y011035D01*
X014459Y011511D02*
X014413Y011511D01*
X014249Y011194D02*
X014092Y011194D01*
X014092Y011035D02*
X014055Y011035D01*
X014202Y012145D02*
X014431Y012145D01*
X014273Y012303D02*
X014202Y012303D01*
X016089Y012145D02*
X018714Y012145D01*
X018596Y012303D02*
X016203Y012303D01*
X016216Y012462D02*
X018545Y012462D01*
X018545Y012620D02*
X016120Y012620D01*
X018787Y013730D02*
X023245Y013730D01*
X023178Y013571D02*
X018945Y013571D01*
X019104Y013413D02*
X023205Y013413D01*
X023367Y012779D02*
X023627Y012779D01*
X023556Y012620D02*
X023407Y012620D01*
X023407Y012462D02*
X023551Y012462D01*
X023551Y012479D02*
X023967Y012479D01*
X023967Y012479D01*
X023551Y012479D01*
X023568Y012303D02*
X023407Y012303D01*
X012745Y016741D02*
X012709Y016741D01*
X012709Y016900D02*
X012745Y016900D01*
X012745Y017217D02*
X012709Y017217D01*
X012709Y017376D02*
X012745Y017376D01*
M02*
