%
M48
M72
T01C0.0160
T02C0.0197
T03C0.0315
T04C0.0335
T05C0.0433
T06C0.0512
T07C0.0630
%
T01
X11538Y16358
X11598Y15938
X13098Y16238
X13458Y17498
X13818Y18218
X13998Y19178
X14298Y20378
X14538Y20978
X14358Y21938
X14418Y22898
X14958Y23438
X15378Y23378
X15078Y23918
X15318Y24278
X15678Y25298
X16638Y24278
X16998Y23138
X16758Y22838
X16758Y22058
X15978Y22058
X16818Y19838
X17238Y19778
X18138Y19298
X18438Y20378
X18378Y20978
X17958Y20678
X17958Y21278
X18258Y21578
X17598Y22538
X17358Y24098
X17958Y24218
X18258Y23978
X18498Y25238
X18438Y26438
X19338Y25718
X19758Y26138
X19518Y24578
X19518Y24158
X19518Y23438
X19878Y23258
X20718Y21878
X21018Y22238
X20718Y20678
X21057Y18892
X21084Y18413
X21522Y18413
X21467Y18933
X19638Y19718
X19638Y21218
X21198Y24338
X21498Y24638
X21498Y23918
X21498Y25718
X22098Y25778
X22458Y27218
X22458Y28058
X22458Y28478
X22938Y29078
X22638Y29378
X22458Y30818
X22458Y31838
X22458Y32258
X21558Y32258
X21558Y31778
X21198Y32618
X21078Y32018
X21198Y30878
X21558Y30698
X21558Y29918
X21378Y29018
X19818Y32198
X20118Y32918
X21078Y34718
X21198Y36698
X21198Y37118
X20238Y37418
X19038Y36398
X18138Y37658
X17538Y35438
X16038Y35378
X15498Y37658
X14958Y38018
X14658Y38438
X14358Y38018
X14058Y38378
X13938Y37958
X12738Y37898
X12498Y37598
X12018Y37478
X11358Y37298
X12438Y39398
X13218Y35198
X13158Y34778
X13818Y35198
X14298Y35198
X16758Y30098
X17358Y31718
X16698Y28298
X17658Y25298
X19638Y30338
X22278Y36398
X23598Y38318
X23058Y38858
X23538Y39338
X24138Y40418
X23538Y40778
X22338Y40718
X21858Y39518
X21618Y40178
X21618Y41198
X21198Y41198
X24018Y37478
X24978Y35858
X24378Y34718
X24078Y35558
X24498Y33758
X24078Y33158
X24138Y31778
X24498Y31238
X24198Y30878
X23658Y30338
X23538Y29378
X23598Y28958
X23898Y27398
X23598Y27098
X23958Y26558
X25496Y25685
X25476Y25232
X25476Y24700
X22578Y23618
X23358Y30998
X25398Y32318
X25758Y33218
X25578Y40118
X16638Y41078
X13878Y28238
X13578Y27938
X13578Y27518
X14178Y27638
X12378Y26738
X13278Y24578
X12918Y24398
X13458Y23558
X13758Y23318
X13758Y22178
X13398Y21758
X13398Y21278
X13458Y20678
X12438Y20438
X12378Y20858
X11958Y19898
X12258Y19178
X12378Y22538
X12438Y22958
X11538Y24338
X14658Y18158
X14658Y17438
X15558Y17978
X16098Y18158
X15798Y19178
X16338Y14438
X16158Y14078
X15918Y12398
X15018Y12938
X14418Y12938
X12138Y11798
X11958Y12998
X17658Y13238
X22398Y12338
X23478Y13538
X24798Y15398
X26178Y15278
X25638Y12458
T02
X25414Y41551
X24914Y41551
X24414Y41551
X23914Y41551
X23414Y41551
X22914Y41551
X22414Y41551
X21914Y41551
T03
X13673Y40830
X12673Y40830
T04
X11714Y18617
X11714Y17436
T05
X18028Y38984
X19028Y39984
X18028Y40984
X17028Y39984
T06
X19069Y16795
X19069Y12531
X15424Y16176
X22715Y16176
T07
X20841Y16176
X17298Y16176
M30
